<svg width="512" height="512" viewBox="0 0 512 512" fill="none" xmlns="http://www.w3.org/2000/svg">
<path d="M260.197 507.804C176.892 507.804 109.115 440.027 109.115 356.722C109.115 273.417 176.892 205.64 260.197 205.64C343.502 205.64 411.279 273.417 411.279 356.722C411.279 440.027 343.502 507.804 260.197 507.804ZM260.197 222.427C186.15 222.427 125.902 282.675 125.902 356.722C125.902 430.769 186.15 491.017 260.197 491.017C334.244 491.017 394.492 430.769 394.492 356.722C394.492 282.675 334.244 222.427 260.197 222.427Z" fill="#FFB811"/>
<path d="M151.082 365.115C146.449 365.115 142.688 361.363 142.688 356.721C142.688 291.924 195.399 239.213 260.197 239.213C264.83 239.213 268.59 242.965 268.59 247.606C268.59 252.248 264.83 256 260.197 256C204.657 256 159.475 301.182 159.475 356.721C159.475 361.363 155.715 365.115 151.082 365.115Z" fill="#FFB811"/>
<path d="M260.197 474.23C255.563 474.23 251.803 470.478 251.803 465.836C251.803 461.195 255.563 457.443 260.197 457.443C315.736 457.443 360.918 412.261 360.918 356.722C360.918 352.08 364.678 348.328 369.311 348.328C373.945 348.328 377.705 352.08 377.705 356.722C377.705 421.519 324.994 474.23 260.197 474.23Z" fill="#FFB811"/>
<path d="M302.164 381.902C301.115 381.902 300.057 381.709 299.042 381.306L260.197 365.77L221.352 381.314C218.112 382.607 214.419 381.768 212.06 379.199C209.702 376.639 209.173 372.879 210.726 369.765L252.693 285.831C255.538 280.14 264.863 280.14 267.709 285.831L309.676 369.765C311.237 372.879 310.708 376.639 308.342 379.199C306.713 380.953 304.464 381.902 302.164 381.902ZM260.197 348.328C261.254 348.328 262.312 348.521 263.319 348.924L284.79 357.511L260.197 308.35L235.612 357.519L257.083 348.932C258.082 348.53 259.139 348.328 260.197 348.328Z" fill="#FFB811"/>
<path d="M260.197 432.262C257.704 432.262 255.345 431.154 253.751 429.249L211.783 378.888C210.063 376.823 209.433 374.062 210.096 371.452C210.751 368.841 212.623 366.718 215.116 365.711L257.083 348.924C259.089 348.118 261.313 348.118 263.319 348.924L305.286 365.711C307.779 366.709 309.651 368.841 310.306 371.452C310.969 374.062 310.339 376.823 308.618 378.888L266.651 429.249C265.048 431.163 262.69 432.262 260.197 432.262ZM232.07 377.008L260.197 410.758L288.323 377.008L260.197 365.769L232.07 377.008Z" fill="#FFB811"/>
<path d="M503.607 507.803H8.39344C3.76026 507.803 0 504.052 0 499.41C0 494.768 3.76026 491.017 8.39344 491.017H503.607C508.24 491.017 512 494.768 512 499.41C512 504.052 508.24 507.803 503.607 507.803Z" fill="#FFB811"/>
<path d="M444.853 507.803H377.705C373.072 507.803 369.312 504.051 369.312 499.409V437.583C369.312 435.879 369.832 434.226 370.797 432.824C386.3 410.338 394.492 384.016 394.492 356.721C394.492 329.425 386.3 303.104 370.797 280.626C369.832 279.224 369.312 277.571 369.312 275.867V172.065H335.738C332.255 172.065 329.132 169.908 327.89 166.651C326.648 163.395 327.554 159.71 330.156 157.393L405.697 90.2459C408.878 87.4089 413.671 87.4089 416.852 90.2459L492.393 157.393C494.995 159.702 495.893 163.395 494.659 166.651C493.425 169.908 490.303 172.065 486.82 172.065H453.246V499.409C453.246 504.051 449.486 507.803 444.853 507.803ZM386.098 491.016H436.459V163.672C436.459 159.03 440.219 155.278 444.853 155.278H464.745L411.279 107.755L357.813 155.278H377.705C382.338 155.278 386.098 159.03 386.098 163.672V273.29C402.583 298.101 411.279 326.891 411.279 356.721C411.279 386.551 402.583 415.341 386.098 440.152V491.016Z" fill="#FFB811"/>
<path d="M142.688 507.803H75.541C70.9078 507.803 67.1475 504.051 67.1475 499.409V172.065H33.5738C30.0905 172.065 26.9681 169.908 25.7259 166.651C24.4837 163.395 25.3901 159.71 27.9921 157.393L103.533 90.2459C106.714 87.4089 111.507 87.4089 114.688 90.2459L190.229 157.393C192.831 159.702 193.729 163.395 192.495 166.651C191.261 169.908 188.139 172.065 184.656 172.065H151.082V275.859C151.082 277.562 150.562 279.216 149.596 280.618C134.094 303.112 125.902 329.434 125.902 356.721C125.902 384.008 134.094 410.338 149.596 432.816C150.562 434.226 151.082 435.879 151.082 437.583V499.409C151.082 504.051 147.322 507.803 142.688 507.803ZM83.9344 491.016H134.295V440.152C117.81 415.341 109.115 386.551 109.115 356.721C109.115 326.891 117.81 298.101 134.295 273.29V163.672C134.295 159.03 138.055 155.278 142.688 155.278H162.581L109.115 107.755L55.6485 155.278H75.541C80.1741 155.278 83.9344 159.03 83.9344 163.672V491.016Z" fill="#FFB811"/>
<path d="M226.623 226.573C224.76 226.573 222.93 225.952 221.427 224.777C219.413 223.182 218.23 220.748 218.23 218.18V88.1316H184.656C181.173 88.1316 178.05 85.9745 176.808 82.7178C175.566 79.4612 176.472 75.7764 179.074 73.4598L254.615 6.31231C257.796 3.47532 262.589 3.47532 265.77 6.31231L341.311 73.4598C343.913 75.768 344.811 79.4612 343.577 82.7178C342.343 85.9745 339.221 88.1316 335.738 88.1316H302.164V218.171C302.164 220.748 300.98 223.174 298.966 224.768C296.935 226.346 294.291 226.951 291.798 226.33C270.353 221.151 250.024 221.151 228.595 226.33C227.941 226.497 227.286 226.573 226.623 226.573ZM260.197 205.64C268.431 205.64 276.866 206.387 285.377 207.864V79.7381C285.377 75.0966 289.137 71.3447 293.771 71.3447H313.663L260.197 23.821L206.731 71.3447H226.623C231.256 71.3447 235.016 75.0966 235.016 79.7381V207.864C243.519 206.387 251.954 205.64 260.197 205.64Z" fill="#FFB811"/>
</svg>
