<svg viewBox="0 0 512 512" fill="none" id="bank" xmlns="http://www.w3.org/2000/svg">
<g clip-path="url(#clip0)">
<path d="M503.463 512H469.33C464.62 512 460.797 508.177 460.797 503.467C460.797 498.756 464.62 494.934 469.33 494.934H503.463C508.173 494.934 511.996 498.756 511.996 503.467C511.996 508.177 508.173 512 503.463 512Z" fill="#FFB811"/>
<path d="M204.801 512H8.53759C3.82726 512 0.00439453 508.177 0.00439453 503.467C0.00439453 498.756 3.82726 494.934 8.53759 494.934H204.801C209.511 494.934 213.334 498.756 213.334 503.467C213.334 508.177 209.511 512 204.801 512Z" fill="#FFB811"/>
<path d="M409.597 512H307.199C302.489 512 298.666 508.177 298.666 503.467C298.666 498.756 302.489 494.934 307.199 494.934H409.597C414.308 494.934 418.131 498.756 418.131 503.467C418.131 508.177 414.308 512 409.597 512Z" fill="#FFB811"/>
<path d="M256 512C241.886 512 230.4 500.514 230.4 486.4V445.27C230.4 400.078 206.021 358.624 165.173 334.373C108.7 300.837 74.866 239.219 76.8883 173.556C79.747 80.7835 154.566 4.64179 247.219 0.213062C296.823 -2.15916 343.824 15.3424 379.637 49.4837C415.468 83.6421 435.197 129.713 435.197 179.205C435.197 243.179 400.842 302.928 345.53 335.141C305.501 358.445 281.6 398.713 281.6 442.847V486.4C281.6 500.514 270.114 512 256 512ZM256.077 17.0746C253.406 17.0746 250.727 17.1344 248.039 17.2624C164.217 21.2644 96.5317 90.1444 93.9462 174.077C92.1115 233.536 122.746 289.335 173.885 319.696C219.964 347.053 247.467 393.994 247.467 445.27V486.4C247.467 491.102 251.298 494.933 256 494.933C260.702 494.933 264.533 491.102 264.533 486.4V442.847C264.533 392.569 291.6 346.797 336.937 320.395C387.019 291.22 418.131 237.12 418.131 179.205C418.131 134.432 400.279 92.747 367.853 61.8398C337.407 32.8013 297.966 17.0746 256.077 17.0746Z" fill="#FFB811"/>
<path d="M256 324.27C176.01 324.27 110.936 259.196 110.936 179.206C110.936 99.2157 176.01 34.1416 256 34.1416C335.99 34.1416 401.064 99.2157 401.064 179.206C401.064 259.196 335.99 324.27 256 324.27ZM256 51.208C185.422 51.208 128.002 108.628 128.002 179.206C128.002 249.784 185.422 307.204 256 307.204C326.578 307.204 383.998 249.784 383.998 179.206C383.998 108.628 326.578 51.208 256 51.208Z" fill="#FFB811"/>
<path d="M324.265 264.537H187.734C183.024 264.537 179.201 260.714 179.201 256.004V221.871C179.201 217.161 183.024 213.338 187.734 213.338H324.265C328.976 213.338 332.799 217.161 332.799 221.871V256.004C332.799 260.714 328.976 264.537 324.265 264.537ZM196.268 247.471H315.732V230.404H196.268V247.471Z" fill="#FFB811"/>
<path d="M332.799 136.54H179.201C175.447 136.54 172.119 134.074 171.035 130.481C169.943 126.889 171.342 122.998 174.465 120.907L251.264 69.708C254.131 67.7966 257.86 67.7966 260.727 69.708L337.526 120.907C340.658 122.998 342.049 126.88 340.957 130.481C339.881 134.074 336.553 136.54 332.799 136.54ZM207.386 119.474H304.622L256 87.056L207.386 119.474Z" fill="#FFB811"/>
<path d="M204.801 230.405C200.09 230.405 196.268 226.582 196.268 221.872V128.007C196.268 123.297 200.09 119.474 204.801 119.474C209.511 119.474 213.334 123.297 213.334 128.007V221.872C213.334 226.582 209.511 230.405 204.801 230.405Z" fill="#FFB811"/>
<path d="M307.199 230.405C302.489 230.405 298.666 226.582 298.666 221.872V128.007C298.666 123.297 302.489 119.474 307.199 119.474C311.91 119.474 315.732 123.297 315.732 128.007V221.872C315.732 226.582 311.91 230.405 307.199 230.405Z" fill="#FFB811"/>
<path d="M273.066 230.405C268.356 230.405 264.533 226.582 264.533 221.872V128.007C264.533 123.297 268.356 119.474 273.066 119.474C277.777 119.474 281.6 123.297 281.6 128.007V221.872C281.6 226.582 277.777 230.405 273.066 230.405Z" fill="#FFB811"/>
<path d="M238.934 230.405C234.223 230.405 230.4 226.582 230.4 221.872V128.007C230.4 123.297 234.223 119.474 238.934 119.474C243.644 119.474 247.467 123.297 247.467 128.007V221.872C247.467 226.582 243.644 230.405 238.934 230.405Z" fill="#FFB811"/>
</g>
<defs>
<clipPath id="clip0">
<rect width="512" height="512" fill="white"/>
</clipPath>
</defs>
</svg>
