<svg viewBox="0 0 512 512" fill="none" id="bestrait" xmlns="http://www.w3.org/2000/svg">
<g clip-path="url(#clip0)">
<path d="M59.7333 42.6668C57.5487 42.6668 55.3642 41.8306 53.7002 40.1666L34.1333 20.5996L14.5663 40.1666C11.2298 43.5031 5.83674 43.5031 2.5002 40.1666C-0.836331 36.83 -0.836331 31.437 2.5002 28.1004L28.1002 2.50045C31.4367 -0.836087 36.8298 -0.836087 40.1663 2.50045L65.7663 28.1004C69.1029 31.437 69.1029 36.83 65.7663 40.1666C64.1023 41.8306 61.9178 42.6668 59.7333 42.6668Z" fill="#FFB811"/>
<path d="M477.867 512C475.682 512 473.498 511.164 471.834 509.5C468.497 506.163 468.497 500.77 471.834 497.434L491.401 477.867L471.834 458.3C468.497 454.963 468.497 449.57 471.834 446.234C475.17 442.897 480.563 442.897 483.9 446.234L509.5 471.834C512.836 475.17 512.836 480.563 509.5 483.9L483.9 509.5C482.236 511.164 480.051 512 477.867 512Z" fill="#FFB811"/>
<path d="M503.467 486.4H34.1333C29.4229 486.4 25.6 482.586 25.6 477.867V8.53333C25.6 3.8144 29.4229 0 34.1333 0C38.8437 0 42.6666 3.8144 42.6666 8.53333V469.333H503.467C508.177 469.333 512 473.148 512 477.867C512 482.586 508.177 486.4 503.467 486.4Z" fill="#FFB811"/>
<path d="M102.4 486.4H68.2666C63.5562 486.4 59.7333 482.585 59.7333 477.867V401.067C59.7333 396.348 63.5562 392.533 68.2666 392.533H102.4C107.11 392.533 110.933 396.348 110.933 401.067V477.867C110.933 482.585 107.11 486.4 102.4 486.4ZM76.7999 469.333H93.8666V409.6H76.7999V469.333Z" fill="#FFB811"/>
<path d="M170.667 486.4H136.533C131.823 486.4 128 482.586 128 477.867V375.467C128 370.748 131.823 366.934 136.533 366.934H170.667C175.377 366.934 179.2 370.748 179.2 375.467V477.867C179.2 482.586 175.377 486.4 170.667 486.4ZM145.067 469.334H162.133V384H145.067V469.334Z" fill="#FFB811"/>
<path d="M238.933 486.4H204.8C200.09 486.4 196.267 482.586 196.267 477.867V324.267C196.267 319.548 200.09 315.733 204.8 315.733H238.933C243.644 315.733 247.467 319.548 247.467 324.267V477.867C247.467 482.586 243.644 486.4 238.933 486.4ZM213.333 469.333H230.4V332.8H213.333V469.333Z" fill="#FFB811"/>
<path d="M307.2 486.4H273.067C268.356 486.4 264.533 482.585 264.533 477.867V273.067C264.533 268.348 268.356 264.533 273.067 264.533H307.2C311.91 264.533 315.733 268.348 315.733 273.067V477.867C315.733 482.585 311.91 486.4 307.2 486.4ZM281.6 469.333H298.667V281.6H281.6V469.333Z" fill="#FFB811"/>
<path d="M375.467 486.4H341.333C336.623 486.4 332.8 482.585 332.8 477.866V221.866C332.8 217.147 336.623 213.333 341.333 213.333H375.467C380.177 213.333 384 217.147 384 221.866V477.866C384 482.585 380.177 486.4 375.467 486.4ZM349.867 469.333H366.933V230.4H349.867V469.333Z" fill="#FFB811"/>
<path d="M443.733 486.4H409.6C404.89 486.4 401.067 482.586 401.067 477.867V170.667C401.067 165.948 404.89 162.134 409.6 162.134H443.733C448.444 162.134 452.267 165.948 452.267 170.667V477.867C452.267 482.586 448.444 486.4 443.733 486.4ZM418.133 469.334H435.2V179.2H418.133V469.334Z" fill="#FFB811"/>
<path d="M102.4 452.267H68.2666C63.5562 452.267 59.7333 448.452 59.7333 443.733V401.067C59.7333 396.348 63.5562 392.533 68.2666 392.533H102.4C107.11 392.533 110.933 396.348 110.933 401.067V443.733C110.933 448.452 107.11 452.267 102.4 452.267ZM76.7999 435.2H93.8666V409.6H76.7999V435.2Z" fill="#FFB811"/>
<path d="M170.667 435.2H136.533C131.823 435.2 128 431.386 128 426.667V375.467C128 370.748 131.823 366.934 136.533 366.934H170.667C175.377 366.934 179.2 370.748 179.2 375.467V426.667C179.2 431.386 175.377 435.2 170.667 435.2ZM145.067 418.134H162.133V384H145.067V418.134Z" fill="#FFB811"/>
<path d="M238.933 409.6H204.8C200.09 409.6 196.267 405.786 196.267 401.067V324.267C196.267 319.548 200.09 315.733 204.8 315.733H238.933C243.644 315.733 247.467 319.548 247.467 324.267V401.067C247.467 405.786 243.644 409.6 238.933 409.6ZM213.333 392.533H230.4V332.8H213.333V392.533Z" fill="#FFB811"/>
<path d="M307.2 384H273.067C268.356 384 264.533 380.185 264.533 375.467V273.067C264.533 268.348 268.356 264.533 273.067 264.533H307.2C311.91 264.533 315.733 268.348 315.733 273.067V375.467C315.733 380.185 311.91 384 307.2 384ZM281.6 366.933H298.667V281.6H281.6V366.933Z" fill="#FFB811"/>
<path d="M375.467 366.933H341.333C336.623 366.933 332.8 363.119 332.8 358.4V221.866C332.8 217.147 336.623 213.333 341.333 213.333H375.467C380.177 213.333 384 217.147 384 221.866V358.4C384 363.119 380.177 366.933 375.467 366.933ZM349.867 349.866H366.933V230.4H349.867V349.866Z" fill="#FFB811"/>
<path d="M443.733 332.8H409.6C404.89 332.8 401.067 328.986 401.067 324.267V170.667C401.067 165.948 404.89 162.134 409.6 162.134H443.733C448.444 162.134 452.267 165.948 452.267 170.667V324.267C452.267 328.986 448.444 332.8 443.733 332.8ZM418.133 315.734H435.2V179.2H418.133V315.734Z" fill="#FFB811"/>
<path d="M196.267 256C125.687 256 68.2666 198.579 68.2666 128C68.2666 57.4208 125.687 0 196.267 0C266.846 0 324.267 57.4208 324.267 128C324.267 198.579 266.846 256 196.267 256ZM196.267 17.0667C135.1 17.0667 85.3333 66.8331 85.3333 128C85.3333 189.167 135.1 238.933 196.267 238.933C257.434 238.933 307.2 189.167 307.2 128C307.2 66.8331 257.434 17.0667 196.267 17.0667Z" fill="#FFB811"/>
<path d="M213.333 136.533H162.133C157.423 136.533 153.6 132.719 153.6 128V76.7999C153.6 72.081 157.423 68.2666 162.133 68.2666H213.333C232.158 68.2666 247.467 83.5754 247.467 102.4C247.467 121.224 232.158 136.533 213.333 136.533ZM170.667 119.467H213.333C222.746 119.467 230.4 111.812 230.4 102.4C230.4 92.9877 222.746 85.3333 213.333 85.3333H170.667V119.467Z" fill="#FFB811"/>
<path d="M213.333 187.733H162.133C157.423 187.733 153.6 183.919 153.6 179.2V128C153.6 123.281 157.423 119.467 162.133 119.467H213.333C232.158 119.467 247.467 134.776 247.467 153.6C247.467 172.425 232.158 187.733 213.333 187.733ZM170.667 170.667H213.333C222.746 170.667 230.4 163.012 230.4 153.6C230.4 144.188 222.746 136.533 213.333 136.533H170.667V170.667Z" fill="#FFB811"/>
<path d="M179.2 85.3337C174.49 85.3337 170.667 81.5193 170.667 76.8003V51.2003C170.667 46.4814 174.49 42.667 179.2 42.667C183.91 42.667 187.733 46.4814 187.733 51.2003V76.8003C187.733 81.5193 183.91 85.3337 179.2 85.3337Z" fill="#FFB811"/>
<path d="M213.333 85.3337C208.623 85.3337 204.8 81.5193 204.8 76.8003V51.2003C204.8 46.4814 208.623 42.667 213.333 42.667C218.044 42.667 221.867 46.4814 221.867 51.2003V76.8003C221.867 81.5193 218.044 85.3337 213.333 85.3337Z" fill="#FFB811"/>
<path d="M179.2 213.334C174.49 213.334 170.667 209.519 170.667 204.8V179.2C170.667 174.481 174.49 170.667 179.2 170.667C183.91 170.667 187.733 174.481 187.733 179.2V204.8C187.733 209.519 183.91 213.334 179.2 213.334Z" fill="#FFB811"/>
<path d="M213.333 213.334C208.623 213.334 204.8 209.519 204.8 204.8V179.2C204.8 174.481 208.623 170.667 213.333 170.667C218.044 170.667 221.867 174.481 221.867 179.2V204.8C221.867 209.519 218.044 213.334 213.333 213.334Z" fill="#FFB811"/>
<path d="M162.133 85.3333H145.067C140.356 85.3333 136.533 81.5189 136.533 76.7999C136.533 72.081 140.356 68.2666 145.067 68.2666H162.133C166.844 68.2666 170.667 72.081 170.667 76.7999C170.667 81.5189 166.844 85.3333 162.133 85.3333Z" fill="#FFB811"/>
<path d="M162.133 187.734H145.067C140.356 187.734 136.533 183.919 136.533 179.2C136.533 174.481 140.356 170.667 145.067 170.667H162.133C166.844 170.667 170.667 174.481 170.667 179.2C170.667 183.919 166.844 187.734 162.133 187.734Z" fill="#FFB811"/>
</g>
<defs>
<clipPath id="clip0">
<rect width="512" height="512" fill="white"/>
</clipPath>
</defs>
</svg>
