<svg viewBox="0 0 512 512" fill="none" xmlns="http://www.w3.org/2000/svg">
<g clip-path="url(#clip0)">
<path d="M256 400.913C190.362 400.913 124.715 377.335 74.7435 330.197L2.67947 262.203C0.9728 260.59 0 258.346 0 256C0 253.653 0.9728 251.409 2.67947 249.787L74.7435 181.794C174.686 87.5089 337.314 87.5089 437.257 181.794L509.321 249.787C511.036 251.409 512 253.653 512 256C512 258.346 511.036 260.59 509.321 262.212L437.257 330.205C387.285 377.344 321.638 400.913 256 400.913ZM20.9664 256L86.4512 317.781C179.942 405.981 332.049 405.981 425.54 317.781L491.034 256L425.549 194.218C332.058 106.018 179.951 106.018 86.4597 194.218L20.9664 256Z" fill="#FFB811"/>
<path d="M290.133 130.244C289.766 130.244 289.399 130.219 289.033 130.168C267.119 127.318 244.89 127.318 222.976 130.168C220.553 130.509 218.086 129.741 216.243 128.12C214.391 126.498 213.333 124.169 213.333 121.711V85.3335H187.733C184.277 85.3335 181.171 83.2599 179.849 80.0685C178.526 76.877 179.26 73.2076 181.7 70.7671L249.967 2.50045C253.295 -0.836087 258.705 -0.836087 262.033 2.50045L330.3 70.7671C332.74 73.2076 333.474 76.877 332.151 80.0685C330.829 83.2599 327.714 85.3335 324.267 85.3335H298.667V121.711C298.667 124.169 297.609 126.507 295.765 128.12C294.195 129.494 292.19 130.244 290.133 130.244ZM256 110.959C264.542 110.959 273.084 111.369 281.6 112.171V76.8002C281.6 72.0813 285.423 68.2668 290.133 68.2668H303.667L256 20.5996L208.333 68.2668H221.867C226.577 68.2668 230.4 72.0813 230.4 76.8002V112.171C238.916 111.369 247.458 110.959 256 110.959Z" fill="#FFB811"/>
<path d="M256 512C253.815 512 251.631 511.164 249.967 509.5L181.7 441.233C179.26 438.793 178.526 435.123 179.849 431.932C181.171 428.74 184.277 426.667 187.733 426.667H213.333V390.289C213.333 387.832 214.391 385.493 216.235 383.881C218.086 382.268 220.553 381.525 222.967 381.833C244.89 384.683 267.119 384.683 289.024 381.833C291.473 381.491 293.914 382.259 295.757 383.881C297.6 385.493 298.658 387.832 298.658 390.289V426.667H324.258C327.706 426.667 330.82 428.74 332.143 431.932C333.466 435.123 332.732 438.793 330.291 441.233L262.025 509.5C260.369 511.164 258.185 512 256 512ZM208.333 443.733L256 491.401L303.667 443.733H290.133C285.423 443.733 281.6 439.919 281.6 435.2V399.829C264.576 401.434 247.424 401.434 230.4 399.829V435.2C230.4 439.919 226.577 443.733 221.867 443.733H208.333Z" fill="#FFB811"/>
<path d="M256 401.067C176.009 401.067 110.933 335.992 110.933 256C110.933 176.009 176.009 110.934 256 110.934C335.991 110.934 401.067 176.009 401.067 256C401.067 335.992 335.991 401.067 256 401.067ZM256 128C185.421 128 128 185.421 128 256C128 326.579 185.421 384 256 384C326.579 384 384 326.579 384 256C384 185.421 326.579 128 256 128Z" fill="#FFB811"/>
<path d="M273.067 264.533H221.867C217.156 264.533 213.333 260.719 213.333 256V204.8C213.333 200.081 217.156 196.267 221.867 196.267H273.067C291.891 196.267 307.2 211.575 307.2 230.4C307.2 249.224 291.891 264.533 273.067 264.533ZM230.4 247.467H273.067C282.479 247.467 290.133 239.812 290.133 230.4C290.133 220.988 282.479 213.333 273.067 213.333H230.4V247.467Z" fill="#FFB811"/>
<path d="M273.067 315.733H221.867C217.156 315.733 213.333 311.919 213.333 307.2V256C213.333 251.281 217.156 247.467 221.867 247.467H273.067C291.891 247.467 307.2 262.776 307.2 281.6C307.2 300.425 291.891 315.733 273.067 315.733ZM230.4 298.667H273.067C282.479 298.667 290.133 291.012 290.133 281.6C290.133 272.188 282.479 264.533 273.067 264.533H230.4V298.667Z" fill="#FFB811"/>
<path d="M238.933 213.334C234.223 213.334 230.4 209.519 230.4 204.8V179.2C230.4 174.481 234.223 170.667 238.933 170.667C243.644 170.667 247.467 174.481 247.467 179.2V204.8C247.467 209.519 243.644 213.334 238.933 213.334Z" fill="#FFB811"/>
<path d="M273.067 213.334C268.356 213.334 264.533 209.519 264.533 204.8V179.2C264.533 174.481 268.356 170.667 273.067 170.667C277.777 170.667 281.6 174.481 281.6 179.2V204.8C281.6 209.519 277.777 213.334 273.067 213.334Z" fill="#FFB811"/>
<path d="M238.933 341.334C234.223 341.334 230.4 337.519 230.4 332.8V307.2C230.4 302.481 234.223 298.667 238.933 298.667C243.644 298.667 247.467 302.481 247.467 307.2V332.8C247.467 337.519 243.644 341.334 238.933 341.334Z" fill="#FFB811"/>
<path d="M273.067 341.334C268.356 341.334 264.533 337.519 264.533 332.8V307.2C264.533 302.481 268.356 298.667 273.067 298.667C277.777 298.667 281.6 302.481 281.6 307.2V332.8C281.6 337.519 277.777 341.334 273.067 341.334Z" fill="#FFB811"/>
<path d="M221.867 213.333H204.8C200.09 213.333 196.267 209.519 196.267 204.8C196.267 200.081 200.09 196.267 204.8 196.267H221.867C226.577 196.267 230.4 200.081 230.4 204.8C230.4 209.519 226.577 213.333 221.867 213.333Z" fill="#FFB811"/>
<path d="M221.867 315.734H204.8C200.09 315.734 196.267 311.919 196.267 307.2C196.267 302.481 200.09 298.667 204.8 298.667H221.867C226.577 298.667 230.4 302.481 230.4 307.2C230.4 311.919 226.577 315.734 221.867 315.734Z" fill="#FFB811"/>
<path d="M153.6 264.533C148.89 264.533 145.067 260.718 145.067 256C145.067 228.94 154.914 202.88 172.8 182.613C175.915 179.08 181.308 178.739 184.849 181.862C188.382 184.985 188.715 190.378 185.6 193.911C170.47 211.054 162.133 233.105 162.133 256C162.133 260.718 158.31 264.533 153.6 264.533Z" fill="#FFB811"/>
<path d="M332.8 332.271C330.795 332.271 328.781 331.571 327.159 330.138C323.627 327.015 323.285 321.621 326.409 318.089C341.53 300.945 349.867 278.895 349.867 256C349.867 251.281 353.69 247.467 358.4 247.467C363.11 247.467 366.933 251.281 366.933 256C366.933 283.059 357.086 309.12 339.2 329.387C337.51 331.29 335.155 332.271 332.8 332.271Z" fill="#FFB811"/>
</g>
<defs>
<clipPath id="clip0">
<rect width="512" height="512" fill="white"/>
</clipPath>
</defs>
</svg>
