<svg width="2539" height="580" viewBox="0 0 2539 580" fill="none" xmlns="http://www.w3.org/2000/svg">
<path d="M793.12 293.08C768.333 293.08 749.413 286.187 736.36 272.4C723.453 258.613 717 239.033 717 213.66C717 201.047 718.98 189.827 722.94 180C726.9 170.027 732.327 161.667 739.22 154.92C746.113 148.027 754.327 142.82 763.86 139.3C773.393 135.78 783.733 134.02 794.88 134.02C801.333 134.02 807.2 134.533 812.48 135.56C817.76 136.44 822.38 137.54 826.34 138.86C830.3 140.033 833.6 141.28 836.24 142.6C838.88 143.92 840.787 144.947 841.96 145.68L832.06 173.4C827.367 170.907 821.867 168.78 815.56 167.02C809.4 165.26 802.36 164.38 794.44 164.38C789.16 164.38 783.953 165.26 778.82 167.02C773.833 168.78 769.36 171.64 765.4 175.6C761.587 179.413 758.507 184.4 756.16 190.56C753.813 196.72 752.64 204.2 752.64 213C752.64 220.04 753.373 226.64 754.84 232.8C756.453 238.813 758.947 244.02 762.32 248.42C765.84 252.82 770.387 256.34 775.96 258.98C781.533 261.473 788.28 262.72 796.2 262.72C801.187 262.72 805.66 262.427 809.62 261.84C813.58 261.253 817.1 260.593 820.18 259.86C823.26 258.98 825.973 258.027 828.32 257C830.667 255.973 832.793 255.02 834.7 254.14L844.16 281.64C839.32 284.573 832.5 287.213 823.7 289.56C814.9 291.907 804.707 293.08 793.12 293.08ZM910.916 135.78C933.796 135.78 951.323 139.887 963.496 148.1C975.67 156.167 981.756 168.78 981.756 185.94C981.756 196.647 979.263 205.373 974.276 212.12C969.436 218.72 962.396 223.927 953.156 227.74C956.236 231.553 959.463 235.953 962.836 240.94C966.21 245.78 969.51 250.913 972.736 256.34C976.11 261.62 979.336 267.193 982.416 273.06C985.496 278.78 988.356 284.427 990.996 290H952.496C949.71 285.013 946.85 279.953 943.916 274.82C941.13 269.687 938.196 264.7 935.116 259.86C932.183 255.02 929.25 250.473 926.316 246.22C923.383 241.82 920.45 237.86 917.516 234.34H900.576V290H866.256V139.74C873.736 138.273 881.436 137.247 889.356 136.66C897.423 136.073 904.61 135.78 910.916 135.78ZM912.896 165.04C910.403 165.04 908.13 165.113 906.076 165.26C904.17 165.407 902.336 165.553 900.576 165.7V207.06H910.256C923.163 207.06 932.403 205.447 937.976 202.22C943.55 198.993 946.336 193.493 946.336 185.72C946.336 178.24 943.476 172.96 937.756 169.88C932.183 166.653 923.896 165.04 912.896 165.04ZM1061.57 200.24C1067.73 189.827 1073.6 179.413 1079.17 169C1084.74 158.587 1089.88 148.1 1094.57 137.54H1132.41C1124.05 153.967 1115.4 169.88 1106.45 185.28C1097.5 200.68 1088.04 216.153 1078.07 231.7V290H1043.75V232.14C1033.78 216.593 1024.24 201.047 1015.15 185.5C1006.2 169.953 997.55 153.967 989.19 137.54H1029.01C1033.7 148.1 1038.76 158.587 1044.19 169C1049.62 179.413 1055.41 189.827 1061.57 200.24ZM1196.9 135.78C1219.63 135.78 1237.09 139.813 1249.26 147.88C1261.43 155.8 1267.52 168.853 1267.52 187.04C1267.52 205.373 1261.36 218.647 1249.04 226.86C1236.72 234.927 1219.12 238.96 1196.24 238.96H1185.46V290H1151.14V139.74C1158.62 138.273 1166.54 137.247 1174.9 136.66C1183.26 136.073 1190.59 135.78 1196.9 135.78ZM1199.1 165.04C1196.61 165.04 1194.11 165.113 1191.62 165.26C1189.27 165.407 1187.22 165.553 1185.46 165.7V209.7H1196.24C1208.12 209.7 1217.07 208.087 1223.08 204.86C1229.09 201.633 1232.1 195.62 1232.1 186.82C1232.1 182.567 1231.29 179.047 1229.68 176.26C1228.21 173.473 1226.01 171.273 1223.08 169.66C1220.29 167.9 1216.85 166.727 1212.74 166.14C1208.63 165.407 1204.09 165.04 1199.1 165.04ZM1408.59 137.54V166.8H1362.61V290H1328.29V166.8H1282.31V137.54H1408.59ZM1454.31 213.66C1454.31 221.14 1455.19 227.887 1456.95 233.9C1458.86 239.913 1461.5 245.12 1464.87 249.52C1468.39 253.773 1472.65 257.073 1477.63 259.42C1482.62 261.767 1488.34 262.94 1494.79 262.94C1501.1 262.94 1506.75 261.767 1511.73 259.42C1516.87 257.073 1521.12 253.773 1524.49 249.52C1528.01 245.12 1530.65 239.913 1532.41 233.9C1534.32 227.887 1535.27 221.14 1535.27 213.66C1535.27 206.18 1534.32 199.433 1532.41 193.42C1530.65 187.26 1528.01 182.053 1524.49 177.8C1521.12 173.4 1516.87 170.027 1511.73 167.68C1506.75 165.333 1501.1 164.16 1494.79 164.16C1488.34 164.16 1482.62 165.407 1477.63 167.9C1472.65 170.247 1468.39 173.62 1464.87 178.02C1461.5 182.273 1458.86 187.48 1456.95 193.64C1455.19 199.653 1454.31 206.327 1454.31 213.66ZM1570.69 213.66C1570.69 226.713 1568.71 238.227 1564.75 248.2C1560.94 258.027 1555.66 266.313 1548.91 273.06C1542.17 279.66 1534.1 284.647 1524.71 288.02C1515.47 291.393 1505.5 293.08 1494.79 293.08C1484.38 293.08 1474.55 291.393 1465.31 288.02C1456.07 284.647 1448.01 279.66 1441.11 273.06C1434.22 266.313 1428.79 258.027 1424.83 248.2C1420.87 238.227 1418.89 226.713 1418.89 213.66C1418.89 200.607 1420.95 189.167 1425.05 179.34C1429.16 169.367 1434.66 161.007 1441.55 154.26C1448.59 147.513 1456.66 142.453 1465.75 139.08C1474.99 135.707 1484.67 134.02 1494.79 134.02C1505.21 134.02 1515.03 135.707 1524.27 139.08C1533.51 142.453 1541.58 147.513 1548.47 154.26C1555.37 161.007 1560.79 169.367 1564.75 179.34C1568.71 189.167 1570.69 200.607 1570.69 213.66ZM1668.82 293.08C1644.04 293.08 1625.12 286.187 1612.06 272.4C1599.16 258.613 1592.7 239.033 1592.7 213.66C1592.7 201.047 1594.68 189.827 1598.64 180C1602.6 170.027 1608.03 161.667 1614.92 154.92C1621.82 148.027 1630.03 142.82 1639.56 139.3C1649.1 135.78 1659.44 134.02 1670.58 134.02C1677.04 134.02 1682.9 134.533 1688.18 135.56C1693.46 136.44 1698.08 137.54 1702.04 138.86C1706 140.033 1709.3 141.28 1711.94 142.6C1714.58 143.92 1716.49 144.947 1717.66 145.68L1707.76 173.4C1703.07 170.907 1697.57 168.78 1691.26 167.02C1685.1 165.26 1678.06 164.38 1670.14 164.38C1664.86 164.38 1659.66 165.26 1654.52 167.02C1649.54 168.78 1645.06 171.64 1641.1 175.6C1637.29 179.413 1634.21 184.4 1631.86 190.56C1629.52 196.72 1628.34 204.2 1628.34 213C1628.34 220.04 1629.08 226.64 1630.54 232.8C1632.16 238.813 1634.65 244.02 1638.02 248.42C1641.54 252.82 1646.09 256.34 1651.66 258.98C1657.24 261.473 1663.98 262.72 1671.9 262.72C1676.89 262.72 1681.36 262.427 1685.32 261.84C1689.28 261.253 1692.8 260.593 1695.88 259.86C1698.96 258.98 1701.68 258.027 1704.02 257C1706.37 255.973 1708.5 255.02 1710.4 254.14L1719.86 281.64C1715.02 284.573 1708.2 287.213 1699.4 289.56C1690.6 291.907 1680.41 293.08 1668.82 293.08ZM1833.92 137.54H1868.24V290H1833.92V225.32H1776.28V290H1741.96V137.54H1776.28V195.84H1833.92V137.54ZM2005.6 290C2003.99 284.72 2002.16 279.293 2000.1 273.72C1998.2 268.147 1996.29 262.573 1994.38 257H1934.98C1933.08 262.573 1931.1 268.147 1929.04 273.72C1927.14 279.293 1925.38 284.72 1923.76 290H1888.12C1893.84 273.573 1899.27 258.393 1904.4 244.46C1909.54 230.527 1914.52 217.4 1919.36 205.08C1924.35 192.76 1929.19 181.1 1933.88 170.1C1938.72 158.953 1943.71 148.1 1948.84 137.54H1981.62C1986.61 148.1 1991.52 158.953 1996.36 170.1C2001.2 181.1 2006.04 192.76 2010.88 205.08C2015.87 217.4 2020.93 230.527 2026.06 244.46C2031.2 258.393 2036.62 273.573 2042.34 290H2005.6ZM1964.46 172.08C1963.73 174.28 1962.63 177.287 1961.16 181.1C1959.7 184.913 1958.01 189.313 1956.1 194.3C1954.2 199.287 1952.07 204.787 1949.72 210.8C1947.52 216.813 1945.25 223.12 1942.9 229.72H1986.24C1983.9 223.12 1981.62 216.813 1979.42 210.8C1977.22 204.787 1975.1 199.287 1973.04 194.3C1971.14 189.313 1969.45 184.913 1967.98 181.1C1966.52 177.287 1965.34 174.28 1964.46 172.08ZM2164.38 290C2154.55 272.547 2143.92 255.313 2132.48 238.3C2121.04 221.287 2108.86 205.227 2095.96 190.12V290H2062.08V137.54H2090.02C2094.86 142.38 2100.21 148.32 2106.08 155.36C2111.94 162.4 2117.88 169.953 2123.9 178.02C2130.06 185.94 2136.14 194.227 2142.16 202.88C2148.17 211.387 2153.82 219.6 2159.1 227.52V137.54H2193.2V290H2164.38ZM2302.73 163.94C2286.74 163.94 2275.15 168.413 2267.97 177.36C2260.93 186.16 2257.41 198.26 2257.41 213.66C2257.41 221.14 2258.29 227.96 2260.05 234.12C2261.81 240.133 2264.45 245.34 2267.97 249.74C2271.49 254.14 2275.89 257.587 2281.17 260.08C2286.45 262.427 2292.61 263.6 2299.65 263.6C2303.46 263.6 2306.69 263.527 2309.33 263.38C2312.11 263.233 2314.53 262.94 2316.59 262.5V209.48H2350.91V284.94C2346.8 286.553 2340.2 288.24 2331.11 290C2322.01 291.907 2310.79 292.86 2297.45 292.86C2286.01 292.86 2275.59 291.1 2266.21 287.58C2256.97 284.06 2249.05 278.927 2242.45 272.18C2235.85 265.433 2230.71 257.147 2227.05 247.32C2223.53 237.493 2221.77 226.273 2221.77 213.66C2221.77 200.9 2223.75 189.607 2227.71 179.78C2231.67 169.953 2237.09 161.667 2243.99 154.92C2250.88 148.027 2258.95 142.82 2268.19 139.3C2277.57 135.78 2287.55 134.02 2298.11 134.02C2305.29 134.02 2311.75 134.533 2317.47 135.56C2323.33 136.44 2328.32 137.54 2332.43 138.86C2336.68 140.033 2340.13 141.28 2342.77 142.6C2345.55 143.92 2347.53 144.947 2348.71 145.68L2338.81 173.18C2334.11 170.687 2328.69 168.56 2322.53 166.8C2316.51 164.893 2309.91 163.94 2302.73 163.94ZM2382.84 290V137.54H2485.8V166.36H2417.16V196.28H2478.1V224.44H2417.16V261.18H2490.86V290H2382.84Z" fill="white"/>
<path d="M761.68 414.6V498H739.48V414.6H761.68ZM887.916 498H859.956L838.836 435.24L839.196 437.76C839.996 443.28 840.596 448.48 840.996 453.36C841.476 458.16 841.716 463.64 841.716 469.8V498H822.036V414.6H849.396L871.236 477.6C870.276 471.6 869.516 466.2 868.956 461.4C868.476 456.6 868.236 451.08 868.236 444.84V414.6H887.916V498ZM977.103 412.44C983.423 412.44 988.983 413.36 993.783 415.2C998.663 417.04 1003.02 419.8 1006.86 423.48L996.903 435.24C991.143 430.68 985.103 428.4 978.783 428.4C975.503 428.4 972.983 429.04 971.223 430.32C969.543 431.52 968.703 433.24 968.703 435.48C968.703 437.08 969.143 438.4 970.023 439.44C970.903 440.48 972.383 441.48 974.463 442.44C976.543 443.4 979.823 444.6 984.303 446.04C992.863 448.76 999.103 452.2 1003.02 456.36C1007.02 460.44 1009.02 466.12 1009.02 473.4C1009.02 478.68 1007.66 483.36 1004.94 487.44C1002.22 491.44 998.263 494.56 993.063 496.8C987.943 499.04 981.903 500.16 974.943 500.16C961.663 500.16 950.823 496.12 942.423 488.04L953.343 475.92C959.983 481.36 966.903 484.08 974.103 484.08C977.863 484.08 980.783 483.28 982.863 481.68C984.943 480 985.983 477.8 985.983 475.08C985.983 473.16 985.583 471.6 984.783 470.4C983.983 469.12 982.543 468 980.463 467.04C978.463 466 975.503 464.88 971.583 463.68C962.143 460.72 955.503 457.16 951.663 453C947.823 448.84 945.903 443.6 945.903 437.28C945.903 432.32 947.223 427.96 949.863 424.2C952.583 420.44 956.303 417.56 961.023 415.56C965.823 413.48 971.183 412.44 977.103 412.44ZM1122.37 414.6L1120.09 431.52H1100.41V498H1078.21V431.52H1057.33V414.6H1122.37ZM1213.82 498L1210.1 480.96H1188.02L1184.3 498H1161.26L1185.98 414.6H1212.62L1237.34 498H1213.82ZM1191.5 465.12H1206.62L1199.06 430.44L1191.5 465.12ZM1354.78 498H1326.82L1305.7 435.24L1306.06 437.76C1306.86 443.28 1307.46 448.48 1307.86 453.36C1308.34 458.16 1308.58 463.64 1308.58 469.8V498H1288.9V414.6H1316.26L1338.1 477.6C1337.14 471.6 1336.38 466.2 1335.82 461.4C1335.34 456.6 1335.1 451.08 1335.1 444.84V414.6H1354.78V498ZM1474.57 414.6L1472.29 431.52H1452.61V498H1430.41V431.52H1409.53V414.6H1474.57ZM1655.82 414.6L1653.54 430.32H1625.1V448.08H1649.94V463.32H1625.1V482.28H1655.46V498H1602.9V414.6H1655.82ZM1755.11 453.12L1778.75 498H1754.63L1741.67 467.88L1729.31 498H1705.79L1728.59 453.72L1707.47 414.6H1731.35L1741.91 439.92L1753.43 414.6H1776.83L1755.11 453.12ZM1865.05 412.44C1870.33 412.44 1875.09 413.24 1879.33 414.84C1883.57 416.44 1887.53 418.8 1891.21 421.92L1880.77 434.28C1878.29 432.44 1875.89 431.04 1873.57 430.08C1871.25 429.12 1868.77 428.64 1866.13 428.64C1860.85 428.64 1856.73 430.92 1853.77 435.48C1850.81 440.04 1849.33 446.92 1849.33 456.12C1849.33 465.32 1850.81 472.16 1853.77 476.64C1856.81 481.12 1861.01 483.36 1866.37 483.36C1869.25 483.36 1871.89 482.8 1874.29 481.68C1876.77 480.48 1879.45 478.76 1882.33 476.52L1892.17 489C1888.89 492.28 1884.93 494.96 1880.29 497.04C1875.73 499.12 1870.77 500.16 1865.41 500.16C1857.49 500.16 1850.57 498.48 1844.65 495.12C1838.81 491.68 1834.29 486.68 1831.09 480.12C1827.89 473.48 1826.29 465.48 1826.29 456.12C1826.29 447 1827.93 439.16 1831.21 432.6C1834.49 426.04 1839.05 421.04 1844.89 417.6C1850.73 414.16 1857.45 412.44 1865.05 412.44ZM1990.71 498V463.32H1968.63V498H1946.43V414.6H1968.63V446.16H1990.71V414.6H2012.91V498H1990.71ZM2116.96 498L2113.24 480.96H2091.16L2087.44 498H2064.4L2089.12 414.6H2115.76L2140.48 498H2116.96ZM2094.64 465.12H2109.76L2102.2 430.44L2094.64 465.12ZM2257.93 498H2229.97L2208.85 435.24L2209.21 437.76C2210.01 443.28 2210.61 448.48 2211.01 453.36C2211.49 458.16 2211.73 463.64 2211.73 469.8V498H2192.05V414.6H2219.41L2241.25 477.6C2240.29 471.6 2239.53 466.2 2238.97 461.4C2238.49 456.6 2238.25 451.08 2238.25 444.84V414.6H2257.93V498ZM2355.99 412.44C2367.11 412.44 2376.67 415.96 2384.67 423L2373.75 434.4C2370.71 432.24 2367.95 430.68 2365.47 429.72C2363.07 428.68 2360.31 428.16 2357.19 428.16C2351.19 428.16 2346.47 430.48 2343.03 435.12C2339.67 439.76 2337.99 446.84 2337.99 456.36C2337.99 463.32 2338.55 468.84 2339.67 472.92C2340.79 476.92 2342.47 479.8 2344.71 481.56C2347.03 483.32 2349.99 484.2 2353.59 484.2C2357.19 484.2 2360.47 483.44 2363.43 481.92V464.76H2353.95L2351.79 449.52H2384.91V491.04C2380.59 493.92 2375.71 496.16 2370.27 497.76C2364.83 499.36 2359.47 500.16 2354.19 500.16C2328.11 500.16 2315.07 485.52 2315.07 456.24C2315.07 447.12 2316.83 439.28 2320.35 432.72C2323.95 426.08 2328.83 421.04 2334.99 417.6C2341.15 414.16 2348.15 412.44 2355.99 412.44ZM2496.56 414.6L2494.28 430.32H2465.84V448.08H2490.68V463.32H2465.84V482.28H2496.2V498H2443.64V414.6H2496.56Z" fill="white" fill-opacity="0.64"/>
<path d="M305.429 389.087C274.463 389.087 250.827 380.475 234.52 363.251C218.396 346.027 210.334 321.565 210.334 289.865C210.334 274.107 212.807 260.09 217.754 247.813C222.702 235.353 229.481 224.909 238.093 216.48C246.704 207.868 256.965 201.363 268.875 196.966C280.785 192.568 293.702 190.369 307.628 190.369C315.69 190.369 323.019 191.011 329.615 192.293C336.211 193.393 341.983 194.767 346.93 196.416C351.877 197.882 356 199.439 359.298 201.089C362.596 202.738 364.978 204.02 366.444 204.936L354.076 239.568C348.213 236.453 341.342 233.796 333.463 231.597C325.767 229.398 316.972 228.299 307.078 228.299C300.482 228.299 293.977 229.398 287.564 231.597C281.334 233.796 275.746 237.369 270.799 242.316C266.035 247.08 262.187 253.31 259.255 261.006C256.324 268.702 254.858 278.047 254.858 289.041C254.858 297.836 255.774 306.082 257.606 313.778C259.622 321.29 262.737 327.795 266.951 333.292C271.349 338.789 277.029 343.187 283.991 346.485C290.954 349.6 299.382 351.157 309.277 351.157C315.506 351.157 321.095 350.791 326.042 350.058C330.989 349.325 335.387 348.5 339.234 347.584C343.082 346.485 346.472 345.294 349.404 344.011C352.335 342.729 354.992 341.538 357.374 340.438L369.192 374.794C363.146 378.459 354.626 381.757 343.632 384.689C332.638 387.621 319.904 389.087 305.429 389.087Z" fill="url(#paint0_linear)"/>
<path d="M272.64 61.2632C268.074 67.9291 268.12 77.1062 272.685 83.7265C280.036 94.3189 294.691 95.2777 303.366 86.6028C308.205 81.7632 309.986 75.0973 308.799 68.8422C308.068 64.9614 309.392 60.9436 312.223 58.1585L323.865 46.516C326.65 43.7309 330.668 42.3612 334.549 43.0917C340.803 44.2788 347.469 42.4981 352.309 37.6585C360.983 28.9836 360.024 14.3277 349.432 6.97694C342.812 2.36558 333.635 2.36558 326.97 6.93128C319.802 11.8166 317.063 19.9892 318.615 27.477C319.391 31.2665 317.839 35.1473 315.099 37.8868L303.503 49.4837C300.764 52.2231 296.883 53.7754 293.093 52.9993C285.697 51.3556 277.571 54.095 272.64 61.2632Z" fill="url(#paint1_linear)"/>
<path d="M219.911 95.2277C229.772 103.537 244.154 100.707 250.317 90.0685C253.742 84.133 253.742 77.2388 251.002 71.486C249.267 67.9248 249.541 63.7243 251.55 60.2544L259.814 45.9637C261.777 42.5395 265.292 40.211 269.264 39.8914C275.61 39.4348 281.591 35.9649 285.016 30.0294C291.133 19.3913 286.431 5.46593 274.286 1.12851C266.708 -1.61091 257.85 0.763255 252.6 6.8813C246.984 13.4559 246.437 22.0394 249.861 28.888C251.596 32.3579 251.094 36.5127 249.176 39.8457L241.004 54.045C239.086 57.378 235.708 59.8892 231.827 60.1174C224.202 60.574 217.035 65.3223 214.158 73.4949C211.373 81.1197 213.747 90.0228 219.911 95.2277Z" fill="url(#paint2_linear)"/>
<path d="M171.88 119.978C183.568 125.457 196.717 118.974 199.913 107.103C201.693 100.483 199.913 93.8166 195.758 88.9769C193.156 85.9636 192.334 81.8544 193.384 78.0192L197.63 62.0849C198.634 58.2497 201.419 55.0994 205.163 53.7754C211.144 51.6751 216.029 46.7898 217.81 40.1696C221.005 28.2987 212.833 16.1083 199.958 15.0125C191.923 14.3277 183.979 18.8934 180.509 26.1985C176.765 34.0058 178.455 42.4524 183.522 48.1595C186.079 51.0359 186.673 55.1907 185.714 58.9346L181.468 74.7776C180.463 78.5215 177.861 81.8088 174.209 83.0415C166.949 85.4614 161.288 91.899 160.603 100.528C160.01 108.609 164.621 116.554 171.88 119.978Z" fill="url(#paint3_linear)"/>
<path d="M124.627 83.9908C127.869 86.1366 129.512 89.9718 129.512 93.8527V110.244C129.512 114.124 127.869 117.96 124.627 120.105C118.281 124.306 114.446 132.022 116.044 140.514C117.505 148.459 124.033 154.896 131.977 156.357C144.67 158.64 155.718 148.961 155.718 136.679C155.718 129.83 152.249 123.849 146.998 120.288C143.711 118.051 141.839 114.261 141.839 110.335V93.8527C141.839 89.8805 143.711 86.1366 146.998 83.8994C152.249 80.3382 155.718 74.3115 155.718 67.5086C155.718 55.2268 144.67 45.5475 131.977 47.8304C124.033 49.2457 117.55 55.729 116.044 63.6734C114.4 72.1199 118.235 79.7903 124.627 83.9908Z" fill="url(#paint4_linear)"/>
<path d="M76.9175 133.858C80.5699 135.091 83.1723 138.378 84.1767 142.122L88.4226 157.965C89.4271 161.709 88.8335 165.863 86.2312 168.74C81.1634 174.447 79.4742 182.893 83.2179 190.701C86.6877 197.96 94.6774 202.526 102.667 201.887C115.542 200.837 123.669 188.601 120.518 176.73C118.738 170.11 113.853 165.224 107.872 163.124C104.128 161.8 101.343 158.65 100.339 154.814L96.0928 138.88C95.0883 135.045 95.9101 130.936 98.4668 127.922C102.621 123.083 104.402 116.417 102.621 109.797C99.4256 97.9257 86.2768 91.4424 74.589 96.9212C67.2842 100.346 62.673 108.29 63.3121 116.325C63.997 125 69.7039 131.438 76.9175 133.858Z" fill="url(#paint5_linear)"/>
<path d="M43.7689 194.346C47.6496 194.575 50.9825 197.086 52.9457 200.419L61.118 214.618C63.0355 217.951 63.5377 222.152 61.8028 225.576C58.3787 232.379 58.9265 240.962 64.5422 247.582C69.7925 253.701 78.6497 256.075 86.2285 253.335C98.3729 248.952 103.075 235.072 96.9575 224.434C93.5334 218.499 87.5525 215.075 81.2064 214.572C77.2344 214.253 73.7646 211.924 71.7557 208.5L63.4921 194.209C61.5289 190.785 61.255 186.585 62.9442 182.978C65.6835 177.271 65.6835 170.331 62.2594 164.395C56.1416 153.757 41.7144 150.881 31.8528 159.236C25.6894 164.441 23.3153 173.298 25.9633 180.923C29.0222 189.096 36.1445 193.89 43.7689 194.346Z" fill="url(#paint6_linear)"/>
<path d="M27.4257 261.327C31.2151 260.551 35.0958 262.103 37.8351 264.843L49.4316 276.44C52.1709 279.179 53.7232 283.06 52.9471 286.849C51.4404 294.337 54.1798 302.464 61.302 307.395C67.9677 311.961 77.1445 311.915 83.7645 307.349C94.3566 299.999 95.3153 285.343 86.6408 276.668C81.8013 271.828 75.1356 270.048 68.8808 271.235C65.0001 271.965 60.9824 270.641 58.1974 267.81L46.5553 256.168C43.7703 253.383 42.4007 249.365 43.1311 245.484C44.3182 239.229 42.5376 232.563 37.6981 227.724C29.0236 219.049 14.3682 220.008 7.01766 230.6C2.40645 237.22 2.40645 246.397 6.972 253.063C11.8115 260.094 19.9382 262.834 27.4257 261.327Z" fill="url(#paint7_linear)"/>
<path d="M28.9327 330.265C32.4025 328.53 36.5571 329.032 39.89 330.949L54.0888 339.122C57.4217 341.04 59.9327 344.418 60.161 348.299C60.6176 355.924 65.3657 363.092 73.5381 365.968C81.1169 368.662 90.0197 366.242 95.2244 360.079C103.534 350.217 100.703 335.835 90.0653 329.671C84.1301 326.247 77.2362 326.247 71.4836 328.986C67.9224 330.721 63.7221 330.447 60.2523 328.438L45.9622 320.174C42.538 318.211 40.2096 314.695 39.89 310.723C39.3878 304.377 35.9636 298.396 30.0284 294.972C19.3907 288.854 5.46574 293.556 1.12847 305.701C-1.61086 313.28 0.763228 322.138 6.88106 327.388C13.5468 333.141 22.13 333.689 28.9327 330.265Z" fill="url(#paint8_linear)"/>
<path d="M59.0639 394.321L74.9064 398.567C78.6501 399.571 81.9373 402.174 83.17 405.826C85.5898 413.086 92.0272 418.747 100.656 419.432C108.691 420.071 116.635 415.46 120.06 408.155C125.538 396.467 119.055 383.317 107.185 380.121C100.565 378.341 93.899 380.121 89.0596 384.276C86.0463 386.879 81.9373 387.7 78.1022 386.65L62.1685 382.404C58.3334 381.4 55.1832 378.615 53.8592 374.871C51.759 368.89 46.8739 364.004 40.2539 362.224C28.3834 359.028 16.1934 367.2 15.0977 380.076C14.4129 388.111 18.9784 396.056 26.2833 399.526C34.0904 403.269 42.5366 401.58 48.2436 396.512C51.1655 393.91 55.3202 393.316 59.0639 394.321Z" fill="url(#paint9_linear)"/>
<path d="M120.154 455.418C124.354 461.764 132.07 465.599 140.562 464.001C148.506 462.54 154.943 456.011 156.404 448.067C158.687 435.374 149.008 424.325 136.727 424.325C129.878 424.325 123.897 427.795 120.336 433.046C118.099 436.333 114.31 438.205 110.383 438.205H93.9017C89.9297 438.205 86.186 436.333 83.9488 433.046C80.3877 427.795 74.3612 424.325 67.5585 424.325C55.2772 424.325 45.5982 435.374 47.881 448.067C49.2963 456.011 55.7794 462.494 63.7235 464.001C72.261 465.599 79.9312 461.764 84.1315 455.418C86.2773 452.176 90.1123 450.532 93.993 450.532H110.383C114.173 450.532 118.008 452.176 120.154 455.418Z" fill="url(#paint10_linear)"/>
<path d="M168.73 493.761C174.437 498.829 182.883 500.518 190.69 496.774C197.95 493.304 202.515 485.314 201.876 477.279C200.826 464.403 188.59 456.276 176.72 459.427C170.1 461.207 165.215 466.093 163.115 472.074C161.791 475.818 158.64 478.603 154.805 479.607L138.871 483.853C135.036 484.858 130.927 484.036 127.914 481.479C123.075 477.324 116.409 475.544 109.789 477.324C97.9185 480.52 91.4354 493.67 96.9141 505.358C100.338 512.663 108.282 517.274 116.318 516.635C124.947 515.95 131.43 510.289 133.804 503.029C135.036 499.377 138.324 496.774 142.067 495.77L157.91 491.524C161.699 490.565 165.854 491.204 168.73 493.761Z" fill="url(#paint11_linear)"/>
<path d="M247.622 515.455C253.74 510.204 256.114 501.347 253.375 493.768C248.992 481.623 235.113 476.921 224.475 483.039C218.54 486.463 215.116 492.444 214.613 498.79C214.294 502.762 211.965 506.232 208.541 508.241L194.251 516.505C190.827 518.468 186.627 518.742 183.02 517.053C177.313 514.314 170.373 514.314 164.438 517.738C153.8 523.856 150.924 538.284 159.279 548.146C164.484 554.309 173.341 556.683 180.965 554.035C189.138 551.159 193.886 543.991 194.342 536.366C194.571 532.485 197.082 529.152 200.415 527.189L214.613 519.016C217.946 517.099 222.147 516.596 225.571 518.331C232.465 521.619 241.048 521.071 247.622 515.455Z" fill="url(#paint12_linear)"/>
<path d="M307.384 518.747C311.95 512.081 311.904 502.904 307.339 496.284C299.988 485.691 285.333 484.733 276.658 493.407C271.819 498.247 270.038 504.913 271.225 511.168C271.956 515.049 270.632 519.067 267.801 521.852L256.159 533.494C253.374 536.279 249.356 537.649 245.476 536.919C239.221 535.732 232.555 537.512 227.716 542.352C219.041 551.027 220 565.683 230.592 573.033C237.212 577.645 246.389 577.645 253.054 573.079C260.222 568.194 262.962 560.021 261.409 552.533C260.633 548.744 262.185 544.863 264.925 542.124L276.521 530.527C279.261 527.787 283.141 526.235 286.931 527.011C294.373 528.655 302.499 525.915 307.384 518.747Z" fill="url(#paint13_linear)"/>
<path d="M360.163 484.772C350.302 476.463 335.92 479.293 329.757 489.932C326.332 495.867 326.332 502.761 329.072 508.514C330.807 512.075 330.533 516.276 328.524 519.746L320.26 534.036C318.297 537.461 314.782 539.789 310.81 540.109C304.463 540.611 298.483 544.035 295.058 549.971C288.941 560.609 293.643 574.534 305.787 578.872C313.366 581.611 322.223 579.237 327.474 573.119C333.089 566.544 333.637 557.961 330.213 551.112C328.478 547.642 328.98 543.487 330.898 540.154L339.07 525.955C340.988 522.622 344.366 520.111 348.247 519.883C355.872 519.426 363.039 514.678 365.916 506.505C368.701 498.835 366.281 489.977 360.163 484.772Z" fill="url(#paint14_linear)"/>
<path d="M408.148 459.984C396.46 454.506 383.312 460.989 380.116 472.86C378.335 479.48 380.116 486.146 384.27 490.986C386.873 493.999 387.695 498.108 386.644 501.943L382.398 517.878C381.394 521.713 378.609 524.863 374.865 526.187C368.884 528.287 363.999 533.173 362.219 539.793C359.023 551.664 367.195 563.854 380.07 564.95C388.105 565.635 396.049 561.069 399.519 553.764C403.263 545.957 401.574 537.51 396.506 531.803C393.949 528.927 393.356 524.772 394.315 521.028L398.561 505.185C399.565 501.441 402.167 498.154 405.82 496.921C413.079 494.501 418.74 488.063 419.425 479.434C420.064 471.353 415.453 463.454 408.148 459.984Z" fill="url(#paint15_linear)"/>
<path d="M455.446 495.957C452.205 493.812 450.561 489.976 450.561 486.096V469.705C450.561 465.824 452.205 461.989 455.446 459.843C461.793 455.642 465.628 447.926 464.03 439.434C462.569 431.49 456.04 425.052 448.096 423.591C435.404 421.308 424.355 430.987 424.355 443.269C424.355 450.118 427.825 456.099 433.075 459.66C436.362 461.897 438.234 465.687 438.234 469.613V486.096C438.234 490.068 436.362 493.812 433.075 496.049C427.825 499.656 424.355 505.637 424.355 512.44C424.355 524.721 435.404 534.401 448.096 532.118C456.04 530.702 462.523 524.219 464.03 516.275C465.628 507.874 461.838 500.158 455.446 495.957Z" fill="url(#paint16_linear)"/>
<path d="M503.109 446.15C499.456 444.917 496.854 441.63 495.85 437.886L491.604 422.043C490.599 418.299 491.193 414.144 493.795 411.268C498.863 405.561 500.552 397.114 496.808 389.307C493.339 382.048 485.349 377.482 477.359 378.121C464.484 379.171 456.358 391.407 459.508 403.278C461.288 409.898 466.174 414.784 472.154 416.884C475.898 418.208 478.683 421.358 479.688 425.193L483.934 441.128C484.938 444.963 484.116 449.072 481.559 452.085C477.405 456.925 475.624 463.591 477.405 470.211C480.601 482.082 493.749 488.565 505.437 483.087C512.742 479.662 517.353 471.718 516.714 463.682C516.029 455.008 510.368 448.57 503.109 446.15Z" fill="url(#paint17_linear)"/>
<path d="M536.255 385.655C532.374 385.427 529.042 382.916 527.078 379.583L518.906 365.384C516.988 362.051 516.486 357.85 518.221 354.426C521.645 347.623 521.097 339.039 515.482 332.419C510.231 326.301 501.374 323.927 493.796 326.666C481.651 331.049 476.949 344.929 483.066 355.567C486.491 361.503 492.471 364.927 498.818 365.429C502.79 365.749 506.259 368.077 508.268 371.502L516.532 385.792C518.495 389.217 518.769 393.417 517.08 397.024C514.34 402.731 514.34 409.671 517.765 415.606C523.882 426.244 538.31 429.121 548.171 420.766C554.335 415.561 556.709 406.703 554.061 399.078C551.047 390.86 543.88 386.112 536.255 385.655Z" fill="url(#paint18_linear)"/>
<path d="M552.646 318.669C548.857 319.445 544.976 317.892 542.237 315.153L530.64 303.556C527.901 300.817 526.349 296.936 527.125 293.146C528.632 285.659 525.892 277.532 518.77 272.601C512.104 268.035 502.928 268.081 496.308 272.646C485.716 279.997 484.757 294.653 493.431 303.328C498.271 308.168 504.936 309.948 511.191 308.761C515.072 308.031 519.09 309.355 521.875 312.185L533.517 323.828C536.302 326.613 537.671 330.631 536.941 334.512C535.754 340.767 537.534 347.433 542.374 352.272C551.048 360.947 565.704 359.988 573.054 349.396C577.666 342.776 577.666 333.599 573.1 326.933C568.261 319.856 560.134 317.116 552.646 318.669Z" fill="url(#paint19_linear)"/>
<path d="M573.102 252.465C566.527 246.849 557.944 246.301 551.096 249.725C547.626 251.46 543.471 250.958 540.138 249.04L525.94 240.868C522.607 238.95 520.096 235.571 519.867 231.691C519.411 224.066 514.663 216.898 506.49 214.021C498.912 211.328 490.009 213.747 484.804 219.911C476.495 229.773 479.325 244.155 489.963 250.319C495.898 253.743 502.792 253.743 508.545 251.004C512.106 249.269 516.306 249.543 519.776 251.551L534.066 259.815C537.49 261.779 539.819 265.294 540.138 269.266C540.641 275.613 544.065 281.594 550 285.018C560.638 291.136 574.563 286.433 578.9 274.289C581.594 266.573 579.22 257.715 573.102 252.465Z" fill="url(#paint20_linear)"/>
<path d="M521.009 185.667L505.166 181.421C501.423 180.416 498.135 177.814 496.903 174.161C494.483 166.902 488.046 161.24 479.417 160.556C471.381 159.916 463.437 164.528 460.013 171.833C454.534 183.521 461.018 196.67 472.888 199.866C479.508 201.647 486.174 199.866 491.013 195.711C494.026 193.109 498.135 192.287 501.971 193.337L517.904 197.583C521.739 198.588 524.89 201.373 526.214 205.117C528.314 211.098 533.199 215.983 539.819 217.764C551.689 220.96 563.879 212.787 564.975 199.912C565.66 191.876 561.094 183.932 553.789 180.462C545.982 176.718 537.536 178.407 531.829 183.475C528.907 186.078 524.753 186.671 521.009 185.667Z" fill="url(#paint21_linear)"/>
<path d="M443.349 155.627C450.197 155.627 456.178 152.157 459.739 146.906C461.976 143.619 465.766 141.747 469.692 141.747H486.174C490.146 141.747 493.889 143.619 496.127 146.906C499.733 152.157 505.714 155.627 512.517 155.627C524.798 155.627 534.477 144.578 532.194 131.885C530.779 123.941 524.296 117.457 516.352 115.951C507.814 114.353 500.144 118.188 495.944 124.534C493.798 127.776 489.963 129.419 486.082 129.419H469.692C465.811 129.419 461.976 127.776 459.83 124.534C455.63 118.188 447.914 114.353 439.422 115.951C431.478 117.412 425.041 123.941 423.58 131.885C421.343 144.578 431.068 155.627 443.349 155.627Z" fill="url(#paint22_linear)"/>
<path d="M441.156 96.0476C444.991 95.0431 449.1 95.8649 452.114 98.4217C456.953 102.577 463.619 104.357 470.239 102.577C482.109 99.3805 488.592 86.2313 483.114 74.5431C479.689 67.238 471.745 62.6266 463.71 63.2658C455.081 63.9507 448.598 69.6121 446.224 76.8716C444.991 80.5242 441.704 83.1266 437.96 84.1311L422.118 88.3772C418.374 89.3816 414.22 88.7881 411.343 86.1856C405.636 81.1177 397.19 79.4284 389.383 83.1723C382.124 86.6422 377.558 94.6322 378.197 102.622C379.247 115.497 391.483 123.624 403.354 120.474C409.974 118.693 414.859 113.808 416.959 107.827C418.283 104.083 421.433 101.298 425.268 100.294L441.156 96.0476Z" fill="url(#paint23_linear)"/>
<path d="M332.449 64.548C326.331 69.7985 323.957 78.656 326.696 86.2351C331.079 98.3798 344.958 103.083 355.596 96.9645C361.531 93.5402 364.955 87.5591 365.457 81.2128C365.777 77.2406 368.105 73.7707 371.53 71.7618L385.82 63.4978C389.244 61.5346 393.444 61.2606 397.051 62.95C402.758 65.6894 409.698 65.6894 415.633 62.2651C426.271 56.1471 429.147 41.7194 420.792 31.8575C415.542 25.7851 406.684 23.4109 399.06 26.0591C390.888 28.9354 386.139 36.1036 385.683 43.7283C385.455 47.6092 382.944 50.9422 379.611 52.9054L365.412 61.078C362.079 62.9956 357.879 63.4978 354.455 61.7629C347.606 58.3843 339.023 58.9321 332.449 64.548Z" fill="url(#paint24_linear)"/>
<defs>
<linearGradient id="paint0_linear" x1="375.579" y1="-11.5272" x2="375.579" y2="554.385" gradientUnits="userSpaceOnUse">
<stop stop-color="#BA58D0"/>
<stop offset="1" stop-color="#274FE0"/>
</linearGradient>
<linearGradient id="paint1_linear" x1="375.579" y1="-11.5272" x2="375.579" y2="554.385" gradientUnits="userSpaceOnUse">
<stop stop-color="#BA58D0"/>
<stop offset="1" stop-color="#274FE0"/>
</linearGradient>
<linearGradient id="paint2_linear" x1="375.579" y1="-11.5272" x2="375.579" y2="554.385" gradientUnits="userSpaceOnUse">
<stop stop-color="#BA58D0"/>
<stop offset="1" stop-color="#274FE0"/>
</linearGradient>
<linearGradient id="paint3_linear" x1="375.579" y1="-11.5272" x2="375.579" y2="554.385" gradientUnits="userSpaceOnUse">
<stop stop-color="#BA58D0"/>
<stop offset="1" stop-color="#274FE0"/>
</linearGradient>
<linearGradient id="paint4_linear" x1="375.579" y1="-11.5272" x2="375.579" y2="554.385" gradientUnits="userSpaceOnUse">
<stop stop-color="#BA58D0"/>
<stop offset="1" stop-color="#274FE0"/>
</linearGradient>
<linearGradient id="paint5_linear" x1="375.579" y1="-11.5272" x2="375.579" y2="554.385" gradientUnits="userSpaceOnUse">
<stop stop-color="#BA58D0"/>
<stop offset="1" stop-color="#274FE0"/>
</linearGradient>
<linearGradient id="paint6_linear" x1="375.579" y1="-11.5272" x2="375.579" y2="554.385" gradientUnits="userSpaceOnUse">
<stop stop-color="#BA58D0"/>
<stop offset="1" stop-color="#274FE0"/>
</linearGradient>
<linearGradient id="paint7_linear" x1="375.579" y1="-11.5272" x2="375.579" y2="554.385" gradientUnits="userSpaceOnUse">
<stop stop-color="#BA58D0"/>
<stop offset="1" stop-color="#274FE0"/>
</linearGradient>
<linearGradient id="paint8_linear" x1="375.579" y1="-11.5272" x2="375.579" y2="554.385" gradientUnits="userSpaceOnUse">
<stop stop-color="#BA58D0"/>
<stop offset="1" stop-color="#274FE0"/>
</linearGradient>
<linearGradient id="paint9_linear" x1="375.579" y1="-11.5272" x2="375.579" y2="554.385" gradientUnits="userSpaceOnUse">
<stop stop-color="#BA58D0"/>
<stop offset="1" stop-color="#274FE0"/>
</linearGradient>
<linearGradient id="paint10_linear" x1="375.579" y1="-11.5272" x2="375.579" y2="554.385" gradientUnits="userSpaceOnUse">
<stop stop-color="#BA58D0"/>
<stop offset="1" stop-color="#274FE0"/>
</linearGradient>
<linearGradient id="paint11_linear" x1="375.579" y1="-11.5272" x2="375.579" y2="554.385" gradientUnits="userSpaceOnUse">
<stop stop-color="#BA58D0"/>
<stop offset="1" stop-color="#274FE0"/>
</linearGradient>
<linearGradient id="paint12_linear" x1="375.579" y1="-11.5272" x2="375.579" y2="554.385" gradientUnits="userSpaceOnUse">
<stop stop-color="#BA58D0"/>
<stop offset="1" stop-color="#274FE0"/>
</linearGradient>
<linearGradient id="paint13_linear" x1="375.579" y1="-11.5272" x2="375.579" y2="554.385" gradientUnits="userSpaceOnUse">
<stop stop-color="#BA58D0"/>
<stop offset="1" stop-color="#274FE0"/>
</linearGradient>
<linearGradient id="paint14_linear" x1="375.579" y1="-11.5272" x2="375.579" y2="554.385" gradientUnits="userSpaceOnUse">
<stop stop-color="#BA58D0"/>
<stop offset="1" stop-color="#274FE0"/>
</linearGradient>
<linearGradient id="paint15_linear" x1="375.579" y1="-11.5272" x2="375.579" y2="554.385" gradientUnits="userSpaceOnUse">
<stop stop-color="#BA58D0"/>
<stop offset="1" stop-color="#274FE0"/>
</linearGradient>
<linearGradient id="paint16_linear" x1="375.579" y1="-11.5272" x2="375.579" y2="554.385" gradientUnits="userSpaceOnUse">
<stop stop-color="#BA58D0"/>
<stop offset="1" stop-color="#274FE0"/>
</linearGradient>
<linearGradient id="paint17_linear" x1="375.579" y1="-11.5272" x2="375.579" y2="554.385" gradientUnits="userSpaceOnUse">
<stop stop-color="#BA58D0"/>
<stop offset="1" stop-color="#274FE0"/>
</linearGradient>
<linearGradient id="paint18_linear" x1="375.579" y1="-11.5272" x2="375.579" y2="554.385" gradientUnits="userSpaceOnUse">
<stop stop-color="#BA58D0"/>
<stop offset="1" stop-color="#274FE0"/>
</linearGradient>
<linearGradient id="paint19_linear" x1="375.579" y1="-11.5272" x2="375.579" y2="554.385" gradientUnits="userSpaceOnUse">
<stop stop-color="#BA58D0"/>
<stop offset="1" stop-color="#274FE0"/>
</linearGradient>
<linearGradient id="paint20_linear" x1="375.579" y1="-11.5272" x2="375.579" y2="554.385" gradientUnits="userSpaceOnUse">
<stop stop-color="#BA58D0"/>
<stop offset="1" stop-color="#274FE0"/>
</linearGradient>
<linearGradient id="paint21_linear" x1="375.579" y1="-11.5272" x2="375.579" y2="554.385" gradientUnits="userSpaceOnUse">
<stop stop-color="#BA58D0"/>
<stop offset="1" stop-color="#274FE0"/>
</linearGradient>
<linearGradient id="paint22_linear" x1="375.579" y1="-11.5272" x2="375.579" y2="554.385" gradientUnits="userSpaceOnUse">
<stop stop-color="#BA58D0"/>
<stop offset="1" stop-color="#274FE0"/>
</linearGradient>
<linearGradient id="paint23_linear" x1="375.579" y1="-11.5272" x2="375.579" y2="554.385" gradientUnits="userSpaceOnUse">
<stop stop-color="#BA58D0"/>
<stop offset="1" stop-color="#274FE0"/>
</linearGradient>
<linearGradient id="paint24_linear" x1="375.579" y1="-11.5272" x2="375.579" y2="554.385" gradientUnits="userSpaceOnUse">
<stop stop-color="#BA58D0"/>
<stop offset="1" stop-color="#274FE0"/>
</linearGradient>
</defs>
</svg>
