<svg viewBox="0 0 512 512" fill="none" id="currencyexchange" xmlns="http://www.w3.org/2000/svg">
<g clip-path="url(#clip0)">
<path d="M170.667 153.6C169.6 153.6 168.525 153.404 167.492 152.994L128 137.191L88.5077 152.994C85.2139 154.3 81.4592 153.455 79.0613 150.844C76.6635 148.241 76.1259 144.418 77.7045 141.253L120.371 55.9193C123.264 50.1337 132.745 50.1337 135.637 55.9193L178.304 141.253C179.891 144.418 179.354 148.241 176.947 150.844C175.292 152.636 173.005 153.6 170.667 153.6ZM128 119.467C129.075 119.467 130.15 119.663 131.174 120.073L153.003 128.802L128 78.8142L103.006 128.802L124.834 120.073C125.85 119.663 126.925 119.467 128 119.467Z" fill="#FFB811"/>
<path d="M128 204.8C125.466 204.8 123.068 203.673 121.446 201.736L78.7797 150.536C77.0304 148.437 76.3904 145.63 77.0645 142.976C77.7301 140.322 79.6331 138.163 82.1675 137.139L124.834 120.072C126.874 119.253 129.135 119.253 131.174 120.072L173.841 137.139C176.375 138.155 178.278 140.322 178.944 142.976C179.618 145.63 178.978 148.437 177.229 150.536L134.562 201.736C132.932 203.673 130.534 204.8 128 204.8ZM99.4048 148.625L128 182.937L156.595 148.625L128 137.19L99.4048 148.625Z" fill="#FFB811"/>
<path d="M384 512C313.421 512 256 454.579 256 384C256 313.421 313.421 256 384 256C454.579 256 512 313.421 512 384C512 454.579 454.579 512 384 512ZM384 273.067C322.833 273.067 273.067 322.833 273.067 384C273.067 445.167 322.833 494.933 384 494.933C445.167 494.933 494.933 445.167 494.933 384C494.933 322.833 445.167 273.067 384 273.067Z" fill="#FFB811"/>
<path d="M401.067 392.533H349.867C345.156 392.533 341.333 388.719 341.333 384V332.8C341.333 328.081 345.156 324.267 349.867 324.267H401.067C419.891 324.267 435.2 339.575 435.2 358.4C435.2 377.224 419.891 392.533 401.067 392.533ZM358.4 375.467H401.067C410.479 375.467 418.133 367.812 418.133 358.4C418.133 348.988 410.479 341.333 401.067 341.333H358.4V375.467Z" fill="#FFB811"/>
<path d="M401.067 443.733H349.867C345.156 443.733 341.333 439.919 341.333 435.2V384C341.333 379.281 345.156 375.467 349.867 375.467H401.067C419.891 375.467 435.2 390.776 435.2 409.6C435.2 428.425 419.891 443.733 401.067 443.733ZM358.4 426.667H401.067C410.479 426.667 418.133 419.012 418.133 409.6C418.133 400.188 410.479 392.533 401.067 392.533H358.4V426.667Z" fill="#FFB811"/>
<path d="M366.933 341.334C362.223 341.334 358.4 337.519 358.4 332.8V307.2C358.4 302.481 362.223 298.667 366.933 298.667C371.644 298.667 375.467 302.481 375.467 307.2V332.8C375.467 337.519 371.644 341.334 366.933 341.334Z" fill="#FFB811"/>
<path d="M401.067 341.334C396.356 341.334 392.533 337.519 392.533 332.8V307.2C392.533 302.481 396.356 298.667 401.067 298.667C405.777 298.667 409.6 302.481 409.6 307.2V332.8C409.6 337.519 405.777 341.334 401.067 341.334Z" fill="#FFB811"/>
<path d="M366.933 469.334C362.223 469.334 358.4 465.519 358.4 460.8V435.2C358.4 430.481 362.223 426.667 366.933 426.667C371.644 426.667 375.467 430.481 375.467 435.2V460.8C375.467 465.519 371.644 469.334 366.933 469.334Z" fill="#FFB811"/>
<path d="M401.067 469.334C396.356 469.334 392.533 465.519 392.533 460.8V435.2C392.533 430.481 396.356 426.667 401.067 426.667C405.777 426.667 409.6 430.481 409.6 435.2V460.8C409.6 465.519 405.777 469.334 401.067 469.334Z" fill="#FFB811"/>
<path d="M76.8 469.333C74.4107 469.333 72.0725 468.326 70.4171 466.466L2.1504 389.666C-0.7168 386.432 -0.7168 381.568 2.1504 378.334L70.4171 301.534C72.7723 298.88 76.5184 297.967 79.8293 299.221C83.1488 300.484 85.3333 303.659 85.3333 307.2V341.333H269.542C272.239 341.333 274.773 342.605 276.386 344.764C277.99 346.923 278.494 349.713 277.726 352.299C274.637 362.675 273.067 373.342 273.067 384C273.067 394.658 274.637 405.325 277.726 415.701C278.494 418.287 277.999 421.077 276.386 423.236C274.773 425.395 272.239 426.667 269.542 426.667H85.3333V460.8C85.3333 464.341 83.1488 467.516 79.8293 468.779C78.848 469.154 77.8155 469.333 76.8 469.333ZM19.9509 384L68.2667 438.357V418.133C68.2667 413.414 72.0896 409.6 76.8 409.6H258.611C256.879 401.152 256 392.576 256 384C256 375.424 256.879 366.848 258.611 358.4H76.8C72.0896 358.4 68.2667 354.586 68.2667 349.867V329.643L19.9509 384Z" fill="#FFB811"/>
<path d="M128 256C57.4208 256 0 198.579 0 128C0 57.4208 57.4208 0 128 0C198.579 0 256 57.4208 256 128C256 198.579 198.579 256 128 256ZM128 17.0667C66.8331 17.0667 17.0667 66.8331 17.0667 128C17.0667 189.167 66.8331 238.933 128 238.933C189.167 238.933 238.933 189.167 238.933 128C238.933 66.8331 189.167 17.0667 128 17.0667Z" fill="#FFB811"/>
<path d="M435.2 213.333C434.185 213.333 433.152 213.154 432.171 212.779C428.851 211.516 426.667 208.341 426.667 204.8V170.667H242.458C239.761 170.667 237.227 169.395 235.614 167.236C234.01 165.077 233.506 162.287 234.274 159.701C237.363 149.308 238.933 138.65 238.933 128C238.933 117.35 237.363 106.692 234.274 96.2986C233.506 93.713 234.001 90.9226 235.614 88.7637C237.227 86.6048 239.761 85.3333 242.458 85.3333H426.667V51.2C426.667 47.6586 428.851 44.4842 432.171 43.2213C435.473 41.9669 439.228 42.88 441.583 45.5338L509.85 122.334C512.717 125.568 512.717 130.432 509.85 133.666L441.583 210.466C439.927 212.326 437.589 213.333 435.2 213.333ZM253.389 153.6H435.2C439.91 153.6 443.733 157.414 443.733 162.133V182.357L492.049 128L443.733 73.6426V93.8666C443.733 98.5856 439.91 102.4 435.2 102.4H253.389C255.121 110.857 256 119.433 256 128C256 136.567 255.121 145.143 253.389 153.6Z" fill="#FFB811"/>
<path d="M349.867 341.333H332.8C328.09 341.333 324.267 337.519 324.267 332.8C324.267 328.081 328.09 324.267 332.8 324.267H349.867C354.577 324.267 358.4 328.081 358.4 332.8C358.4 337.519 354.577 341.333 349.867 341.333Z" fill="#FFB811"/>
<path d="M349.867 443.734H332.8C328.09 443.734 324.267 439.919 324.267 435.2C324.267 430.481 328.09 426.667 332.8 426.667H349.867C354.577 426.667 358.4 430.481 358.4 435.2C358.4 439.919 354.577 443.734 349.867 443.734Z" fill="#FFB811"/>
</g>
<defs>
<clipPath id="clip0">
<rect width="512" height="512" fill="white"/>
</clipPath>
</defs>
</svg>
