<svg class="si63dbe9fcf7a484000d237a7b7a6fdbb140094e4db1326eeae9ba18941675356680417 svgIcon_1J7 filled_Qbi darkTheme_3jZ" viewBox="0 0 32 32" xmlns="http://www.w3.org/2000/svg"><path class="outer_bDW" d="M0,0 L32,0 L32,32 L0,32 L0,0 Z M24,10.6641564 L16.0000165,17.6642286 L8,10.6641564 L8,22.0000247 L24,22.0000247 L24,10.6641564 Z M23.240347,10 L8.75932326,10 L16.0000165,16.3359487 L23.240347,10 Z"></path><path d="M1,1 L1,31 L31,31 L31,1 L1,1 Z M0,0 L32,0 L32,32 L0,32 L0,0 Z" class="border_2yy"></path><path class="logo_2gS" d="M24,10.6641564 L24,22.0000247 L8,22.0000247 L8,10.6641564 L16.0000165,17.6642286 L24,10.6641564 Z M23.240347,10 L8.75932326,10 L16.0000165,16.3359487 L23.240347,10 Z" style="color:#1a1c28;fill:#1a1c28"></path></svg>