<svg width="393" height="512" viewBox="0 0 393 512" fill="none" xmlns="http://www.w3.org/2000/svg">
<path d="M281.6 85.3333H8.53333C3.82293 85.3333 0 81.5104 0 76.8V30.2677C0 13.5765 13.5765 0 30.2592 0H259.866C276.557 0 290.133 13.5765 290.133 30.2677V76.8C290.133 81.5104 286.31 85.3333 281.6 85.3333ZM17.0667 68.2667H273.067V30.2677C273.067 22.9888 267.145 17.0667 259.866 17.0667H30.2592C22.9888 17.0667 17.0667 22.9888 17.0667 30.2677V68.2667Z" fill="#FFB811"/>
<path d="M259.866 512H30.2592C13.5765 512 0 498.424 0 481.732V435.2C0 430.49 3.82293 426.667 8.53333 426.667H281.6C286.31 426.667 290.133 430.49 290.133 435.2V481.732C290.133 498.424 276.557 512 259.866 512ZM17.0667 443.733V481.732C17.0667 489.011 22.9888 494.933 30.2592 494.933H259.866C267.145 494.933 273.067 489.011 273.067 481.732V443.733H17.0667Z" fill="#FFB811"/>
<path d="M145.067 512C121.54 512 102.4 492.86 102.4 469.333C102.4 445.807 121.54 426.667 145.067 426.667C168.593 426.667 187.733 445.807 187.733 469.333C187.733 492.86 168.593 512 145.067 512ZM145.067 443.733C130.953 443.733 119.467 455.219 119.467 469.333C119.467 483.448 130.953 494.933 145.067 494.933C159.181 494.933 170.667 483.448 170.667 469.333C170.667 455.219 159.181 443.733 145.067 443.733Z" fill="#FFB811"/>
<path d="M170.667 51.2H119.467C114.756 51.2 110.933 47.3771 110.933 42.6667C110.933 37.9563 114.756 34.1333 119.467 34.1333H170.667C175.377 34.1333 179.2 37.9563 179.2 42.6667C179.2 47.3771 175.377 51.2 170.667 51.2Z" fill="#FFB811"/>
<path d="M366.933 384H128C113.886 384 102.4 372.514 102.4 358.4V153.6C102.4 139.486 113.886 128 128 128H366.933C381.047 128 392.533 139.486 392.533 153.6V358.4C392.533 372.514 381.047 384 366.933 384ZM128 145.067C123.29 145.067 119.467 148.898 119.467 153.6V358.4C119.467 363.11 123.298 366.933 128 366.933H366.933C371.644 366.933 375.467 363.102 375.467 358.4V153.6C375.467 148.89 371.635 145.067 366.933 145.067H128Z" fill="#FFB811"/>
<path d="M76.8 179.2H42.6667C37.9563 179.2 34.1333 175.377 34.1333 170.667V136.533C34.1333 131.823 37.9563 128 42.6667 128H76.8C81.5104 128 85.3333 131.823 85.3333 136.533V170.667C85.3333 175.377 81.5104 179.2 76.8 179.2ZM51.2 162.133H68.2667V145.067H51.2V162.133Z" fill="#FFB811"/>
<path d="M76.8 384H42.6667C37.9563 384 34.1333 380.177 34.1333 375.467V341.333C34.1333 336.623 37.9563 332.8 42.6667 332.8H76.8C81.5104 332.8 85.3333 336.623 85.3333 341.333V375.467C85.3333 380.177 81.5104 384 76.8 384ZM51.2 366.933H68.2667V349.867H51.2V366.933Z" fill="#FFB811"/>
<path d="M76.8 315.733H42.6667C37.9563 315.733 34.1333 311.91 34.1333 307.2V273.067C34.1333 268.356 37.9563 264.533 42.6667 264.533H76.8C81.5104 264.533 85.3333 268.356 85.3333 273.067V307.2C85.3333 311.91 81.5104 315.733 76.8 315.733ZM51.2 298.667H68.2667V281.6H51.2V298.667Z" fill="#FFB811"/>
<path d="M76.8 247.467H42.6667C37.9563 247.467 34.1333 243.644 34.1333 238.933V204.8C34.1333 200.09 37.9563 196.267 42.6667 196.267H76.8C81.5104 196.267 85.3333 200.09 85.3333 204.8V238.933C85.3333 243.644 81.5104 247.467 76.8 247.467ZM51.2 230.4H68.2667V213.333H51.2V230.4Z" fill="#FFB811"/>
<path d="M259.866 512H30.2592C13.5765 512 0 498.424 0 481.732V30.2677C0 13.5765 13.5765 0 30.2677 0H259.866C276.557 0 290.133 13.5765 290.133 30.2677V136.533C290.133 141.244 286.31 145.067 281.6 145.067H128C123.29 145.067 119.467 148.898 119.467 153.6V358.4C119.467 363.11 123.298 366.933 128 366.933H281.6C286.31 366.933 290.133 370.756 290.133 375.467V481.732C290.133 498.424 276.557 512 259.866 512ZM30.2677 17.0667C22.9888 17.0667 17.0667 22.9888 17.0667 30.2677V481.732C17.0667 489.011 22.9888 494.933 30.2592 494.933H259.866C267.145 494.933 273.067 489.011 273.067 481.732V384L128 384C113.886 384 102.4 372.514 102.4 358.4V153.6C102.4 139.486 113.886 128 128 128H273.067V30.2677C273.067 22.9888 267.145 17.0667 259.866 17.0667H30.2677Z" fill="#FFB811"/>
<path d="M247.467 256C246.042 256 244.617 255.642 243.319 254.925L166.519 212.258C163.695 210.688 161.997 207.65 162.142 204.425C162.287 201.19 164.25 198.323 167.202 197.009L244.002 162.876C246.212 161.894 248.73 161.894 250.931 162.876L327.731 197.009C330.684 198.323 332.646 201.19 332.792 204.425C332.937 207.659 331.238 210.688 328.414 212.258L251.614 254.925C250.317 255.642 248.892 256 247.467 256ZM189.764 205.653L247.467 237.705L305.169 205.653L247.467 180.002L189.764 205.653Z" fill="#FFB811"/>
<path d="M247.467 349.867C246.042 349.867 244.617 349.508 243.319 348.792L166.519 306.125C163.814 304.623 162.133 301.764 162.133 298.667V204.8C162.133 201.779 163.738 198.98 166.34 197.444C168.951 195.908 172.169 195.874 174.814 197.342L251.614 240.009C254.319 241.51 256 244.369 256 247.467V341.333C256 344.354 254.396 347.153 251.793 348.689C250.462 349.474 248.96 349.867 247.467 349.867ZM179.2 293.649L238.933 326.835V252.493L179.2 219.307V293.649Z" fill="#FFB811"/>
<path d="M247.467 349.867C245.973 349.867 244.471 349.474 243.14 348.689C240.538 347.153 238.933 344.354 238.933 341.333V247.467C238.933 244.369 240.614 241.51 243.319 240.009L320.119 197.342C322.765 195.874 325.982 195.908 328.593 197.444C331.196 198.98 332.8 201.779 332.8 204.8V298.667C332.8 301.764 331.119 304.623 328.414 306.125L251.614 348.792C250.317 349.508 248.892 349.867 247.467 349.867ZM256 252.484V326.827L315.733 293.641V219.307L256 252.484Z" fill="#FFB811"/>
</svg>
