<svg width="513" height="512" viewBox="0 0 513 512" fill="none" xmlns="http://www.w3.org/2000/svg">
<path d="M256.523 264.533C251.812 264.533 247.989 260.71 247.989 256V128C247.989 123.29 251.812 119.467 256.523 119.467C261.233 119.467 265.056 123.29 265.056 128V256C265.056 260.71 261.233 264.533 256.523 264.533Z" fill="#FFB811"/>
<path d="M196.789 324.267C194.605 324.267 192.42 323.43 190.756 321.766C187.42 318.43 187.42 313.037 190.756 309.7L250.49 249.967C253.818 246.63 259.228 246.63 262.556 249.967C265.892 253.303 265.892 258.697 262.556 262.033L202.822 321.766C201.158 323.43 198.974 324.267 196.789 324.267Z" fill="#FFB811"/>
<path d="M256.267 102.4C251.556 102.4 247.733 98.5771 247.733 93.8667V76.8C247.733 72.0896 251.556 68.2667 256.267 68.2667C260.977 68.2667 264.8 72.0896 264.8 76.8V93.8667C264.8 98.5771 260.977 102.4 256.267 102.4Z" fill="#FFB811"/>
<path d="M256.267 443.733C251.556 443.733 247.733 439.91 247.733 435.2V418.133C247.733 413.423 251.556 409.6 256.267 409.6C260.977 409.6 264.8 413.423 264.8 418.133V435.2C264.8 439.91 260.977 443.733 256.267 443.733Z" fill="#FFB811"/>
<path d="M435.467 264.533H418.4C413.69 264.533 409.867 260.71 409.867 256C409.867 251.29 413.69 247.467 418.4 247.467H435.467C440.177 247.467 444 251.29 444 256C444 260.71 440.177 264.533 435.467 264.533Z" fill="#FFB811"/>
<path d="M94.1333 264.533H77.0666C72.3562 264.533 68.5333 260.71 68.5333 256C68.5333 251.29 72.3562 247.467 77.0666 247.467H94.1333C98.8437 247.467 102.667 251.29 102.667 256C102.667 260.71 98.8437 264.533 94.1333 264.533Z" fill="#FFB811"/>
<path d="M370.912 149.888C368.727 149.888 366.543 149.052 364.879 147.388C361.542 144.051 361.542 138.658 364.879 135.322L376.945 123.255C380.273 119.919 385.683 119.919 389.011 123.255C392.348 126.592 392.348 131.985 389.011 135.322L376.945 147.388C375.281 149.052 373.096 149.888 370.912 149.888Z" fill="#FFB811"/>
<path d="M129.555 391.245C127.371 391.245 125.186 390.409 123.522 388.745C120.186 385.408 120.186 380.015 123.522 376.678L135.588 364.612C138.916 361.276 144.326 361.276 147.654 364.612C150.991 367.949 150.991 373.342 147.654 376.678L135.588 388.745C133.924 390.409 131.74 391.245 129.555 391.245Z" fill="#FFB811"/>
<path d="M141.621 149.888C139.437 149.888 137.252 149.052 135.588 147.388L123.522 135.322C120.186 131.985 120.186 126.592 123.522 123.255C126.85 119.919 132.26 119.919 135.588 123.255L147.654 135.322C150.991 138.658 150.991 144.051 147.654 147.388C145.99 149.052 143.806 149.888 141.621 149.888Z" fill="#FFB811"/>
<path d="M401.333 512C340.166 512 290.4 462.234 290.4 401.067C290.4 339.9 340.166 290.133 401.333 290.133C462.5 290.133 512.267 339.9 512.267 401.067C512.267 462.234 462.5 512 401.333 512ZM401.333 307.2C349.579 307.2 307.467 349.312 307.467 401.067C307.467 452.821 349.579 494.933 401.333 494.933C453.088 494.933 495.2 452.821 495.2 401.067C495.2 349.312 453.088 307.2 401.333 307.2Z" fill="#FFB811"/>
<path d="M418.4 460.8H367.2C362.49 460.8 358.667 456.977 358.667 452.267C358.667 447.556 362.49 443.733 367.2 443.733H418.4C427.812 443.733 435.467 436.079 435.467 426.667C435.467 417.254 427.812 409.6 418.4 409.6H384.267C365.442 409.6 350.133 394.291 350.133 375.467C350.133 356.642 365.442 341.333 384.267 341.333H435.467C440.177 341.333 444 345.156 444 349.867C444 354.577 440.177 358.4 435.467 358.4H384.267C374.854 358.4 367.2 366.054 367.2 375.467C367.2 384.879 374.854 392.533 384.267 392.533H418.4C437.224 392.533 452.533 407.842 452.533 426.667C452.533 445.491 437.224 460.8 418.4 460.8Z" fill="#FFB811"/>
<path d="M401.333 477.867C396.623 477.867 392.8 474.044 392.8 469.333V332.8C392.8 328.09 396.623 324.267 401.333 324.267C406.044 324.267 409.867 328.09 409.867 332.8V469.333C409.867 474.044 406.044 477.867 401.333 477.867Z" fill="#FFB811"/>
<path d="M256.267 512C115.108 512 0.266602 397.158 0.266602 256C0.266602 114.842 115.108 0 256.267 0C397.425 0 512.267 114.842 512.267 256C512.267 287.701 506.472 318.754 495.046 348.288C493.894 351.275 491.164 353.365 487.981 353.698C484.789 354.005 481.692 352.555 479.942 349.875C462.5 323.157 433.111 307.209 401.333 307.209C349.579 307.209 307.467 349.321 307.467 401.075C307.467 432.862 323.415 462.242 350.142 479.684C352.821 481.434 354.298 484.54 353.965 487.723C353.632 490.906 351.541 493.636 348.555 494.788C319.021 506.206 287.968 512 256.267 512ZM256.267 17.0667C124.52 17.0667 17.3333 124.254 17.3333 256C17.3333 387.746 124.52 494.933 256.267 494.933C280.655 494.933 304.625 491.264 327.733 484.002C304.113 463.096 290.4 433.109 290.4 401.067C290.4 339.9 340.166 290.133 401.333 290.133C433.384 290.133 463.362 303.838 484.269 327.467C491.531 304.358 495.2 280.388 495.2 256C495.2 124.254 388.013 17.0667 256.267 17.0667Z" fill="#FFB811"/>
<path d="M256.267 477.867C133.933 477.867 34.3999 378.334 34.3999 256C34.3999 133.666 133.933 34.1333 256.267 34.1333C378.6 34.1333 478.133 133.666 478.133 256C478.133 277.717 474.95 299.273 468.67 320.051C467.876 322.679 465.862 324.77 463.268 325.658C460.674 326.554 457.798 326.135 455.563 324.54C439.58 313.199 420.832 307.2 401.333 307.2C349.579 307.2 307.467 349.312 307.467 401.067C307.467 420.565 313.466 439.313 324.806 455.287C326.402 457.532 326.812 460.399 325.924 462.993C325.037 465.596 322.946 467.61 320.318 468.395C299.539 474.684 277.984 477.867 256.267 477.867ZM256.267 51.2C143.336 51.2 51.4666 143.078 51.4666 256C51.4666 368.922 143.336 460.8 256.267 460.8C272.54 460.8 288.702 458.863 304.48 455.031C295.238 438.554 290.4 420.113 290.4 401.067C290.4 339.9 340.166 290.133 401.333 290.133C420.38 290.133 438.82 294.972 455.298 304.205C459.13 288.435 461.067 272.273 461.067 256C461.067 143.078 369.197 51.2 256.267 51.2Z" fill="#FFB811"/>
</svg>
