<svg width="513" height="512" viewBox="0 0 513 512" fill="none" xmlns="http://www.w3.org/2000/svg">
<path d="M34.3999 102.4C15.5754 102.4 0.266602 87.0912 0.266602 68.2667C0.266602 49.4421 15.5754 34.1333 34.3999 34.1333C53.2245 34.1333 68.5333 49.4421 68.5333 68.2667C68.5333 87.0912 53.2245 102.4 34.3999 102.4ZM34.3999 51.2C24.9877 51.2 17.3333 58.8544 17.3333 68.2667C17.3333 77.6789 24.9877 85.3333 34.3999 85.3333C43.8122 85.3333 51.4666 77.6789 51.4666 68.2667C51.4666 58.8544 43.8122 51.2 34.3999 51.2Z" fill="#FFB811"/>
<path d="M162.4 68.2667C143.575 68.2667 128.267 52.9579 128.267 34.1333C128.267 15.3088 143.575 0 162.4 0C181.224 0 196.533 15.3088 196.533 34.1333C196.533 52.9579 181.224 68.2667 162.4 68.2667ZM162.4 17.0667C152.988 17.0667 145.333 24.7211 145.333 34.1333C145.333 43.5456 152.988 51.2 162.4 51.2C171.812 51.2 179.467 43.5456 179.467 34.1333C179.467 24.7211 171.812 17.0667 162.4 17.0667Z" fill="#FFB811"/>
<path d="M478.133 179.2C459.309 179.2 444 163.891 444 145.067C444 126.242 459.309 110.933 478.133 110.933C496.958 110.933 512.267 126.242 512.267 145.067C512.267 163.891 496.958 179.2 478.133 179.2ZM478.133 128C468.721 128 461.067 135.654 461.067 145.067C461.067 154.479 468.721 162.133 478.133 162.133C487.546 162.133 495.2 154.479 495.2 145.067C495.2 135.654 487.546 128 478.133 128Z" fill="#FFB811"/>
<path d="M367.2 512C348.375 512 333.067 496.691 333.067 477.867C333.067 459.042 348.375 443.733 367.2 443.733C386.025 443.733 401.333 459.042 401.333 477.867C401.333 496.691 386.025 512 367.2 512ZM367.2 460.8C357.788 460.8 350.133 468.454 350.133 477.867C350.133 487.279 357.788 494.933 367.2 494.933C376.612 494.933 384.267 487.279 384.267 477.867C384.267 468.454 376.612 460.8 367.2 460.8Z" fill="#FFB811"/>
<path d="M478.133 418.133C459.309 418.133 444 402.825 444 384C444 365.175 459.309 349.867 478.133 349.867C496.958 349.867 512.267 365.175 512.267 384C512.267 402.825 496.958 418.133 478.133 418.133ZM478.133 366.933C468.721 366.933 461.067 374.588 461.067 384C461.067 393.412 468.721 401.067 478.133 401.067C487.546 401.067 495.2 393.412 495.2 384C495.2 374.588 487.546 366.933 478.133 366.933Z" fill="#FFB811"/>
<path d="M111.2 486.4C92.3754 486.4 77.0666 471.091 77.0666 452.267C77.0666 433.442 92.3754 418.133 111.2 418.133C130.024 418.133 145.333 433.442 145.333 452.267C145.333 471.091 130.024 486.4 111.2 486.4ZM111.2 435.2C101.788 435.2 94.1333 442.854 94.1333 452.267C94.1333 461.679 101.788 469.333 111.2 469.333C120.612 469.333 128.267 461.679 128.267 452.267C128.267 442.854 120.612 435.2 111.2 435.2Z" fill="#FFB811"/>
<path d="M34.3999 384C15.5754 384 0.266602 368.691 0.266602 349.867C0.266602 331.042 15.5754 315.733 34.3999 315.733C53.2245 315.733 68.5333 331.042 68.5333 349.867C68.5333 368.691 53.2245 384 34.3999 384ZM34.3999 332.8C24.9877 332.8 17.3333 340.454 17.3333 349.867C17.3333 359.279 24.9877 366.933 34.3999 366.933C43.8122 366.933 51.4666 359.279 51.4666 349.867C51.4666 340.454 43.8122 332.8 34.3999 332.8Z" fill="#FFB811"/>
<path d="M392.8 68.2667C373.975 68.2667 358.667 52.9579 358.667 34.1333C358.667 15.3088 373.975 0 392.8 0C411.624 0 426.933 15.3088 426.933 34.1333C426.933 52.9579 411.624 68.2667 392.8 68.2667ZM392.8 17.0667C383.388 17.0667 375.733 24.7211 375.733 34.1333C375.733 43.5456 383.388 51.2 392.8 51.2C402.212 51.2 409.867 43.5456 409.867 34.1333C409.867 24.7211 402.212 17.0667 392.8 17.0667Z" fill="#FFB811"/>
<path d="M256.267 409.6C171.573 409.6 102.667 340.693 102.667 256C102.667 171.307 171.573 102.4 256.267 102.4C340.96 102.4 409.867 171.307 409.867 256C409.867 340.693 340.96 409.6 256.267 409.6ZM256.267 119.467C180.977 119.467 119.733 180.719 119.733 256C119.733 331.281 180.977 392.533 256.267 392.533C331.556 392.533 392.8 331.281 392.8 256C392.8 180.719 331.556 119.467 256.267 119.467Z" fill="#FFB811"/>
<path d="M145.333 264.533C140.623 264.533 136.8 260.719 136.8 256C136.8 190.123 190.389 136.533 256.267 136.533C260.977 136.533 264.8 140.348 264.8 145.067C264.8 149.786 260.977 153.6 256.267 153.6C199.802 153.6 153.867 199.535 153.867 256C153.867 260.719 150.044 264.533 145.333 264.533Z" fill="#FFB811"/>
<path d="M256.267 375.467C251.556 375.467 247.733 371.652 247.733 366.933C247.733 362.214 251.556 358.4 256.267 358.4C312.732 358.4 358.667 312.465 358.667 256C358.667 251.281 362.49 247.467 367.2 247.467C371.91 247.467 375.733 251.281 375.733 256C375.733 321.877 322.144 375.467 256.267 375.467Z" fill="#FFB811"/>
<path d="M273.333 264.533H222.133C217.423 264.533 213.6 260.719 213.6 256V204.8C213.6 200.081 217.423 196.267 222.133 196.267H273.333C292.158 196.267 307.467 211.575 307.467 230.4C307.467 249.225 292.158 264.533 273.333 264.533ZM230.667 247.467H273.333C282.746 247.467 290.4 239.812 290.4 230.4C290.4 220.988 282.746 213.333 273.333 213.333H230.667V247.467Z" fill="#FFB811"/>
<path d="M273.333 315.733H222.133C217.423 315.733 213.6 311.919 213.6 307.2V256C213.6 251.281 217.423 247.467 222.133 247.467H273.333C292.158 247.467 307.467 262.775 307.467 281.6C307.467 300.425 292.158 315.733 273.333 315.733ZM230.667 298.667H273.333C282.746 298.667 290.4 291.012 290.4 281.6C290.4 272.188 282.746 264.533 273.333 264.533L230.667 264.533V298.667Z" fill="#FFB811"/>
<path d="M239.2 213.333C234.49 213.333 230.667 209.519 230.667 204.8V179.2C230.667 174.481 234.49 170.667 239.2 170.667C243.91 170.667 247.733 174.481 247.733 179.2V204.8C247.733 209.519 243.91 213.333 239.2 213.333Z" fill="#FFB811"/>
<path d="M273.333 213.333C268.623 213.333 264.8 209.519 264.8 204.8V179.2C264.8 174.481 268.623 170.667 273.333 170.667C278.044 170.667 281.867 174.481 281.867 179.2V204.8C281.867 209.519 278.044 213.333 273.333 213.333Z" fill="#FFB811"/>
<path d="M239.2 341.333C234.49 341.333 230.667 337.519 230.667 332.8V307.2C230.667 302.481 234.49 298.667 239.2 298.667C243.91 298.667 247.733 302.481 247.733 307.2V332.8C247.733 337.519 243.91 341.333 239.2 341.333Z" fill="#FFB811"/>
<path d="M273.333 341.333C268.623 341.333 264.8 337.519 264.8 332.8V307.2C264.8 302.481 268.623 298.667 273.333 298.667C278.044 298.667 281.867 302.481 281.867 307.2V332.8C281.867 337.519 278.044 341.333 273.333 341.333Z" fill="#FFB811"/>
<path d="M222.133 213.333H205.067C200.356 213.333 196.533 209.519 196.533 204.8C196.533 200.081 200.356 196.267 205.067 196.267H222.133C226.844 196.267 230.667 200.081 230.667 204.8C230.667 209.519 226.844 213.333 222.133 213.333Z" fill="#FFB811"/>
<path d="M222.133 315.733H205.067C200.356 315.733 196.533 311.919 196.533 307.2C196.533 302.481 200.356 298.667 205.067 298.667H222.133C226.844 298.667 230.667 302.481 230.667 307.2C230.667 311.919 226.844 315.733 222.133 315.733Z" fill="#FFB811"/>
<path d="M145.333 170.667H102.667C60.3157 170.667 25.8666 136.218 25.8666 93.8667C25.8666 89.1477 29.6895 85.3333 34.3999 85.3333C39.1103 85.3333 42.9333 89.1477 42.9333 93.8667C42.9333 126.797 69.7279 153.6 102.667 153.6H145.333C150.044 153.6 153.867 157.414 153.867 162.133C153.867 166.852 150.044 170.667 145.333 170.667Z" fill="#FFB811"/>
<path d="M205.067 460.8H136.8C132.09 460.8 128.267 456.986 128.267 452.267C128.267 447.548 132.09 443.733 136.8 443.733H205.067C228.593 443.733 247.733 424.593 247.733 401.067C247.733 396.348 251.556 392.533 256.267 392.533C260.977 392.533 264.8 396.348 264.8 401.067C264.8 433.997 238.005 460.8 205.067 460.8Z" fill="#FFB811"/>
<path d="M145.333 358.4H59.9999C55.2895 358.4 51.4666 354.586 51.4666 349.867C51.4666 345.148 55.2895 341.333 59.9999 341.333H145.333C150.044 341.333 153.867 345.148 153.867 349.867C153.867 354.586 150.044 358.4 145.333 358.4Z" fill="#FFB811"/>
<path d="M256.267 68.2667C251.556 68.2667 247.733 64.4523 247.733 59.7333C247.733 50.3211 240.079 42.6667 230.667 42.6667H188C183.29 42.6667 179.467 38.8523 179.467 34.1333C179.467 29.4144 183.29 25.6 188 25.6H230.667C249.491 25.6 264.8 40.9088 264.8 59.7333C264.8 64.4523 260.977 68.2667 256.267 68.2667Z" fill="#FFB811"/>
<path d="M256.267 119.467C251.556 119.467 247.733 115.652 247.733 110.933V59.7333C247.733 55.0144 251.556 51.2 256.267 51.2C260.977 51.2 264.8 55.0144 264.8 59.7333L264.8 110.933C264.8 115.652 260.977 119.467 256.267 119.467Z" fill="#FFB811"/>
<path d="M324.533 136.533C319.823 136.533 316 132.719 316 128C316 109.175 331.309 93.8667 350.133 93.8667H375.733C380.444 93.8667 384.267 90.0437 384.267 85.3333V59.7333C384.267 55.0144 388.09 51.2 392.8 51.2C397.51 51.2 401.333 55.0144 401.333 59.7333V85.3333C401.333 99.4475 389.847 110.933 375.733 110.933H350.133C340.721 110.933 333.067 118.588 333.067 128C333.067 132.719 329.244 136.533 324.533 136.533Z" fill="#FFB811"/>
<path d="M401.333 264.533C396.623 264.533 392.8 260.719 392.8 256C392.8 237.175 408.109 221.867 426.933 221.867H461.067C465.777 221.867 469.6 218.044 469.6 213.333V170.667C469.6 165.948 473.423 162.133 478.133 162.133C482.844 162.133 486.667 165.948 486.667 170.667V213.333C486.667 227.447 475.181 238.933 461.067 238.933H426.933C417.521 238.933 409.867 246.588 409.867 256C409.867 260.719 406.044 264.533 401.333 264.533Z" fill="#FFB811"/>
<path d="M478.133 366.933C473.423 366.933 469.6 363.119 469.6 358.4V332.8C469.6 328.09 465.777 324.267 461.067 324.267H418.4C400.659 324.267 388.747 310.554 388.747 290.133C388.747 285.414 392.57 281.6 397.28 281.6C401.99 281.6 405.813 285.414 405.813 290.133C405.813 295.27 407.042 307.2 418.4 307.2H461.067C475.181 307.2 486.667 318.686 486.667 332.8V358.4C486.667 363.119 482.844 366.933 478.133 366.933Z" fill="#FFB811"/>
<path d="M367.2 435.2C362.49 435.2 358.667 431.386 358.667 426.667C358.667 421.956 354.844 418.133 350.133 418.133C331.309 418.133 316 402.825 316 384C316 379.281 319.823 375.467 324.533 375.467C329.244 375.467 333.067 379.281 333.067 384C333.067 393.412 340.721 401.067 350.133 401.067C364.247 401.067 375.733 412.553 375.733 426.667C375.733 431.386 371.91 435.2 367.2 435.2Z" fill="#FFB811"/>
<path d="M367.2 460.8C362.49 460.8 358.667 456.986 358.667 452.267L358.667 426.667C358.667 421.948 362.49 418.133 367.2 418.133C371.91 418.133 375.733 421.948 375.733 426.667V452.267C375.733 456.986 371.91 460.8 367.2 460.8Z" fill="#FFB811"/>
</svg>
