<svg width="2499" height="353" viewBox="0 0 2499 353" fill="none" xmlns="http://www.w3.org/2000/svg">
<path d="M146.518 0.0208637C144.154 0.134429 141.857 0.735133 139.643 2.15022C148.76 3.97325 159.442 5.19857 165.197 13.5068C168.081 16.5701 167.183 21.2771 164.299 23.9668C158.846 30.4669 149.483 32.5066 141.475 30.4296C114.322 24.0191 88.6429 11.5568 60.7446 8.31415C45.8017 6.34169 31.1951 13.5292 20.8845 23.9294C11.3659 33.4779 7.90512 47.9725 9.78941 61.0625C11.8949 71.4179 19.5695 82.1767 30.6721 83.7009C24.0972 76.5582 22.8495 64.1556 29.6634 56.729C33.5187 51.9473 40.37 51.2898 46.0632 52.1714C67.6855 56.1911 88.755 62.6987 110.317 67.0769C122.391 70.3644 134.323 74.2869 146.666 76.5283C146.89 91.2769 146.89 106.011 146.666 120.759C138.701 126.706 131.096 133.109 123.28 139.251C130.886 144.944 138.731 150.279 146.593 155.613C147.101 176.474 146.518 197.328 146.892 218.187C134.026 228.124 116.788 229.737 101.129 227.899C84.4962 226.975 69.7327 217.066 58.8394 205.037C77.101 195.294 95.7124 186.104 114.391 177.17C115.047 144.279 114.509 111.375 114.688 78.4709C91.3475 88.2585 68.2459 98.569 44.9798 108.506C51.7041 91.3068 65.3828 77.3726 81.7019 69.0942C77.4417 69.3483 72.9738 69.0345 69.0005 70.8874C38.4573 82.9463 13.286 108.865 3.81376 140.484C-2.52201 160.567 -0.482309 182.524 6.39141 202.16C14.9088 224.007 30.6661 243.344 51.5562 254.386C63.2878 260.452 75.9146 266.137 89.3631 266.303C117.202 268.619 146.488 258.115 165.273 237.164C173.475 228.363 177.608 216.888 181.673 205.784C185.44 194.847 187.142 183.205 186.753 171.64C177.743 189.511 165.759 206.298 149.396 218.149C149.499 197.364 149.359 176.586 149.432 155.8C156.546 150.376 163.687 144.959 170.576 139.251C163.508 132.99 156.485 126.736 149.432 120.46C149.463 105.846 149.402 91.2022 149.432 76.603C165.346 75.7662 183.659 67.3683 187.947 50.6772C190.936 39.7838 192.497 26.8807 185.818 17.0184C179.676 10.0251 171.712 3.95084 162.358 2.26229C157.178 1.80952 151.717 -0.227188 146.518 0.0208637V0.0208637ZM72.0638 100.25C72.004 131.929 72.2506 163.608 71.9517 195.288C66.6619 197.365 61.4603 199.637 56.2617 201.936C46.6684 188.056 40.7062 171.714 37.9567 155.128C37.2096 141.126 39.8096 126.946 44.681 113.811C53.8858 109.432 62.8889 104.703 72.0638 100.25V100.25ZM1897.26 0.0208637C1894.7 -0.0568392 1892.19 0.446735 1889.83 2.15022C1895.21 3.39048 1900.89 3.92095 1905.93 6.44629C1910.41 8.59807 1913.38 13.051 1914.93 17.6534C1915.77 22.6294 1912.12 27.2169 1907.76 29.0847C1899.93 32.7009 1891.04 31.0273 1883.06 28.8606C1863.94 23.003 1845.31 15.427 1825.8 10.8544C1815.77 8.71761 1805.26 6.70032 1795.13 9.36015C1784.14 12.4533 1772.99 17.7132 1766.51 27.5157C1758.14 38.3194 1757.09 53.1801 1761.17 65.8815C1764.53 74.3541 1771.34 82.6848 1780.97 83.7756C1777.83 79.741 1772.43 75.6691 1773.98 69.9161C1774.85 64.2079 1777.22 58.4176 1781.79 54.7117C1786.36 51.2599 1792.62 51.3048 1797.93 52.8439C1817.39 56.4601 1836.38 61.9217 1855.61 66.4792C1868.64 69.2437 1881.15 74.1076 1894.27 76.5283C1894.5 91.2171 1894.33 105.906 1894.38 120.61C1887.33 126.841 1880.28 133.065 1873.32 139.4C1880.34 144.825 1887.23 150.383 1894.35 155.688C1894.45 176.595 1894.31 197.528 1894.46 218.448C1882.12 227.696 1865.87 229.977 1850.9 227.898C1834.36 226.912 1819.89 216.961 1808.91 205.186C1813.41 202.047 1818.55 200.031 1823.41 197.491C1837.06 190.766 1850.55 183.728 1864.31 177.243C1864.75 144.324 1864.36 111.39 1864.5 78.4709C1841.31 88.3481 1818.3 98.6886 1795.01 108.357C1800.33 95.7299 1808.84 84.1791 1820.27 76.4536C1823.69 73.3305 1827.16 70.0581 1831.85 68.9822C1827.16 69.3109 1822.3 69.154 1818.02 71.3357C1785.23 84.6049 1757.25 113.549 1751.08 149.113C1748.74 167.164 1750.42 185.91 1756.72 203.02C1764.8 223.103 1779.04 240.945 1797.55 252.331C1806.41 257.725 1815.93 262.066 1825.87 265.068C1849.66 269.028 1875.17 265.606 1895.99 252.965C1909.72 243.386 1922.48 230.969 1928.23 214.86C1934.4 201.188 1936.88 186.252 1937.19 171.339C1934.32 175.09 1932.64 179.55 1930.21 183.555C1922.3 196.824 1912.07 208.846 1899.61 218.036C1899.76 197.19 1899.42 176.345 1899.8 155.5C1906.85 150.404 1913.47 144.726 1920.57 139.66C1914.02 132.876 1906.6 127.019 1899.65 120.683C1899.51 106.069 1899.81 91.4398 1899.5 76.8257C1913.17 75.944 1927 69.81 1934.35 57.8109C1942 45.483 1941.96 28.6872 1934.57 16.2697C1928.76 8.5891 1919.63 3.64301 1910.18 2.22344C1905.95 1.87976 1901.53 0.152361 1897.26 0.0208637V0.0208637ZM1822.21 100.213C1822.39 131.832 1822.21 163.443 1822.28 195.063C1816.89 197.319 1811.56 199.702 1806.18 201.974C1798.38 191.006 1792.31 178.67 1789.19 165.55C1785.73 148.366 1786.65 129.74 1794.64 113.885C1803.9 109.462 1813.03 104.83 1822.21 100.213ZM710.893 10.5556C719.799 26.1559 714.226 47.3001 700.822 58.5371C692.588 63.9016 683.115 66.8603 673.835 69.8638C674.044 133.67 673.867 197.491 673.895 261.297C674.552 264.211 671.878 266.495 669.13 265.331C663.704 265.077 662.269 259.354 659.968 255.499C626.586 194.114 593.564 132.519 559.911 71.2684C559.268 116.321 559.896 161.419 559.597 206.485C575.496 209.49 590.977 217.156 601.377 229.797C606.204 226.061 609.327 219.487 615.513 217.977C613.944 220.832 611.658 223.176 609.476 225.568C597.447 238.882 585.448 252.256 573.434 265.6C567.862 258.577 560.435 251.913 551.139 250.956C545.028 250.717 537.961 251.031 533.507 255.858C528.381 260.43 524.946 268.141 528.606 274.671C532.894 284.04 543.683 286.58 552.768 288.822C541.412 291.063 528.697 289.748 519.537 282.142C512.245 275.911 505.623 268.005 503.727 258.353C501.172 245.054 505.147 230.274 515.084 220.845C525.949 210.101 541.876 206.096 556.789 206.948C557.193 187.312 557.013 167.678 556.879 148.043C549.632 146.893 539.754 147.924 536.377 155.5C534.42 161.641 539.024 166.812 543.58 170.174C537.931 169.187 531.655 168.112 527.576 163.733C522.764 157.801 519.029 150.793 517.639 143.232C516.249 133.504 518.804 122.416 526.904 116.155C535.376 109.595 546.658 108.699 556.998 108.938V67.4266C553.248 61.7932 549.647 55.3378 543.208 52.424C538.994 50.6757 533.495 50.0481 529.864 53.3355C524.843 57.5942 523.631 64.3633 521.645 70.2956C519.718 55.816 521.167 39.3938 531.313 28.0372C543.566 12.1679 569.492 11.5851 582.896 26.259C588.694 32.2212 592.669 39.5731 596.615 46.8204C621.42 90.9915 645.732 135.447 670.791 179.468C670.941 142.963 671.015 106.429 670.761 69.9221C666.456 68.2485 661.661 68.2933 657.281 66.7691C649.123 64.6174 642.324 59.3575 636.287 53.6642C632.521 58.0873 628.724 62.4955 625.214 67.1128C624.392 66.6645 622.763 65.7829 621.943 65.3346C634.794 49.1366 648.57 33.6707 661.945 17.891C668.953 25.2728 678.1 31.3097 688.529 31.9822C699.417 30.7284 710.131 22.0168 710.893 10.5556V10.5556ZM1545.04 45.8954C1562.97 34.2101 1580.87 22.4202 1598.86 10.8246C1599.01 79.7709 1598.73 148.732 1599.01 217.679C1602.9 222.968 1608.2 227.317 1612.91 231.965C1615.86 228.798 1618.94 225.764 1621.99 222.701C1622.71 223.417 1624.14 224.853 1624.88 225.555C1610.52 238.001 1596.6 250.926 1582.15 263.241C1573.05 253.902 1563.64 244.891 1554.62 235.505C1550.56 239.107 1546.86 243.053 1543.05 246.893C1542.27 246.296 1540.72 245.084 1539.94 244.488C1546.83 237.898 1554.21 231.861 1561.18 225.331C1561.12 173.076 1561.22 120.82 1561.12 68.5802C1560.95 58.8061 1555.97 47.1058 1545.04 45.8954ZM206.109 47.9277C221.545 36.4217 236.682 24.4973 252.133 13.0361C252.207 51.0208 252.118 89.0205 252.178 127.02C265.253 116.231 278.431 105.577 291.371 94.6391C301.756 105.413 311.454 116.859 322.153 127.289C326.668 124.047 331.299 120.968 336.035 118.069C335.185 124.091 327.981 126.154 324.245 130.352C324.29 151.123 324.245 171.879 324.26 192.649C324.559 208.176 322.318 223.596 321.856 239.107C321.152 255.932 314.624 273.133 301.504 284.174C290.833 293.709 276.251 297.145 262.339 298.295C262.1 298.624 261.592 299.296 261.338 299.639L261.711 298.415C256.914 298.415 252.133 298.236 247.351 297.877C253.36 294.769 260.157 292.781 264.894 287.641C270.333 281.573 276.669 275.791 279.344 267.857C283.722 255.753 283.856 242.708 284.29 230.006C284.17 201.54 284.424 173.059 284.155 144.608C277.82 136.345 270.229 129.052 263.504 121.073C259.828 125.003 255.422 128.305 252.267 132.669C252.013 162.046 252.237 191.439 252.163 220.815C255.975 224.612 259.769 228.437 263.609 232.203C266.689 229.11 269.765 226.002 272.844 222.894C273.532 223.566 274.891 224.911 275.578 225.583C260.635 237.269 245.843 249.135 230.9 260.804C221.442 252.406 212.207 243.769 202.898 235.207C199.774 237.538 196.651 239.899 193.513 242.213C192.842 241.511 191.526 240.106 190.855 239.404C198.028 234.787 205.066 229.962 212.164 225.253C212.149 173.013 212.149 120.788 212.164 68.5473C212.013 64.5576 212.208 60.254 210.101 56.6976C208.71 53.978 205.574 53.1114 203.226 51.4676C202.702 49.7358 205.182 49.0036 206.109 47.9277V47.9277ZM1235.29 20.1937C1221.25 31.5652 1207.51 43.2879 1193.6 54.8238C1193.45 43.9454 1193.79 33.0894 1193.41 22.211C1191.26 22.1064 1190.32 23.0777 1190.61 25.1249C1190.54 102.021 1190.64 178.909 1190.58 255.805C1182.99 254.354 1175.38 252.839 1167.86 251.136C1167.74 186.284 1167.86 121.445 1167.83 56.5796C1167.66 48.376 1165 40.1275 1159.61 33.8664C1152.88 25.9019 1142.37 22.2035 1132.23 21.5012C1120.2 21.1575 1109.17 27.4784 1100.77 35.6222C1093.05 42.9592 1088.9 54.3008 1091.1 64.8355C1092.04 58.3055 1094.17 50.9461 1100.17 47.315C1106.76 44.5058 1115.54 46.7696 1119.49 52.956C1122.86 57.9469 1123.2 64.1855 1123.33 70.0282C1123.36 87.5561 1123.32 105.084 1123.33 122.627C1111.77 122.806 1098.11 124.674 1091.43 135.403C1084.71 143.801 1082.63 155.711 1087.25 165.588C1090.28 175.36 1100.44 180.398 1109.88 181.95C1104.59 178.53 1099.21 172.508 1102.34 165.812C1106.54 159.088 1116.08 158.101 1123.18 160.059C1123.47 191.168 1123.33 222.266 1123.26 253.377C1112.65 257.081 1102.32 263.516 1096.66 273.513C1092.53 280.64 1092.43 289.165 1092.77 297.16C1094.04 311.176 1103.29 323.973 1115.71 330.37C1125.09 334.763 1135.66 334.898 1145.82 334.554C1174.66 332.837 1202.06 321.389 1230.96 320.435C1239.56 319.791 1244.61 329.303 1242.35 336.76C1240.63 343.499 1234.98 348.057 1229.65 352.001C1239.8 349.85 1249.9 346.039 1257.82 339.149C1266.75 331.575 1270.86 319.357 1270.3 307.881C1269.62 296.525 1260.46 288.074 1250.94 283.188C1238.41 275.836 1223.27 277.474 1209.48 278.968C1183.57 281.957 1158.31 290.183 1132.15 290.885C1123.27 291.483 1114.99 285.199 1113.21 276.503C1111.21 268.121 1118.01 260.789 1124.9 257.189C1139.81 250.151 1156.98 252.757 1172.53 256.031C1190.57 257.915 1207.49 265.273 1225.54 267.126C1235.79 268.292 1246.68 266.321 1255.09 260.104C1263.76 254.755 1267.67 244.331 1267.9 234.515C1268.01 173.309 1267.79 112.109 1268.02 50.9043C1273.61 46.0479 1279.77 41.692 1284.64 36.0735C1277.83 37.762 1273.55 44.1501 1267.98 48.0651C1256.97 38.9022 1246.19 29.5031 1235.29 20.1937V20.1937ZM1204.73 51.1254C1211.01 56.5049 1217.19 61.9889 1223.45 67.4132C1223.46 86.6895 1223.4 105.966 1223.45 125.242C1220.47 128.171 1217.22 131.264 1212.88 131.817C1205.79 133.311 1198.9 129.807 1193.56 125.429C1193.59 102.925 1193.58 80.4284 1193.56 57.9244C1197.3 55.683 1201.03 53.4416 1204.73 51.1254V51.1254ZM1193.56 130.771C1202.74 135.433 1214.54 136.845 1223.45 130.808C1223.42 139.55 1223.42 148.329 1223.45 157.07C1219.83 153.544 1215.19 150.742 1210 150.757C1203.9 150.622 1198.3 153.499 1193.56 157.07C1193.59 148.314 1193.55 139.542 1193.56 130.771ZM1209.93 153.521C1215.84 153.671 1220.39 158.086 1223.45 162.749C1223.41 187.15 1223.46 211.567 1223.45 235.969C1223.93 243.455 1218.77 249.858 1213.14 254.162C1207.7 258.48 1200.32 258.629 1193.71 258.271C1193.34 226.398 1193.7 194.474 1193.56 162.599C1197.84 157.952 1203.25 153.432 1209.93 153.521V153.521ZM1945.58 59.9716C1955.26 51.4841 1964.37 42.3689 1974.27 34.1205C1982.64 42.9517 1991.45 51.3496 1999.95 60.0463C1989.75 69.5948 1979.48 79.0686 1969.14 88.4677C1961.33 78.9192 1953.29 69.5948 1945.58 59.9716V59.9716ZM828.001 69.0569C834.053 64.9028 841.703 65.1568 848.698 64.2602C843.423 68.4293 837.566 73.2708 836.847 80.4583C835.666 86.8837 839.732 92.6666 844.469 96.5219C853.091 103.425 864.164 107.281 871.187 116.127C874.564 120.401 876.611 125.81 876.462 131.294C876.417 160.283 876.492 189.257 876.417 218.231C884.126 224.463 891.868 230.619 899.562 236.85C901.803 235.401 904.045 233.953 906.303 232.502C906.198 200.868 906.466 169.219 906.167 137.6C902.208 132.923 896.724 129.575 892.195 125.406C903.313 115.171 914.206 104.666 925.548 94.6839C935.41 104.367 945.78 113.527 955.897 122.941C952.056 127.004 948.105 130.96 944.047 134.805C943.972 162.614 944.047 190.423 944.002 218.231C954.103 226.062 964.206 233.907 974.411 241.617C975.847 240.779 977.296 239.958 978.776 239.137C978.625 205.173 978.791 171.221 978.684 137.256C974.007 133.266 969.166 129.456 964.549 125.391C975.457 115.081 986.5 104.95 997.468 94.7138C1008.39 103.261 1019.33 111.808 1030.19 120.43C1033.96 116.276 1037.81 112.152 1042.12 108.521C1042.67 109.313 1043.8 110.912 1044.36 111.704C1035.06 119.982 1025.83 128.365 1016.82 136.957C1016.04 164.034 1016.8 191.2 1016.44 218.291C992.789 233.832 968.089 248.014 944.09 263.135C931.432 254.064 919.136 244.501 906.642 235.221C895.435 244.232 884.213 253.258 872.931 262.178C871.317 263.972 869.658 261.357 868.328 260.609C857.777 252.137 847.289 243.588 836.605 235.311C832.122 239.225 827.416 242.886 822.919 246.801C822.201 246.113 820.797 244.754 820.079 244.081C825.564 240.287 830.928 236.296 836.412 232.5C836.443 206.246 836.443 180.006 836.412 153.752C836.397 146.728 833.932 139.616 829.135 134.415C823.86 128.692 816.762 124.673 812.563 117.963C807.916 110.163 807.498 100.495 809.276 91.782C811.877 81.9376 819.694 74.4363 828.001 69.0569ZM2491.05 87.8102C2492.13 90.5597 2492.47 93.6304 2491.13 96.365C2487.83 103.911 2478.83 106.81 2471.18 106.676C2463.17 105.958 2456.92 100.198 2451.53 94.7586C2442.47 100.825 2433.37 106.847 2424.33 112.914C2413.9 119.937 2402.39 125.122 2390.82 129.949C2390.78 144.802 2390.84 159.626 2390.79 174.479C2399.23 181.517 2407.91 188.241 2416.19 195.473C2409.84 202.198 2403.58 209.018 2397.59 216.056C2391.43 223.467 2385.62 232.03 2385.26 241.983C2384.9 253.293 2389.74 265.541 2399.75 271.531C2404.18 274.131 2409.55 276.447 2414.69 274.445C2408.3 272.159 2400.43 267.526 2400.98 259.726C2402.76 252.345 2411.53 247.406 2418.8 249.528C2426.35 251.68 2432.58 257.074 2437.41 263.126C2456.8 249.154 2477.23 236.669 2498.45 225.657C2498.29 206.815 2498.71 187.926 2498.26 169.098C2488.89 162.523 2479.96 155.358 2470.69 148.663C2480.5 136.246 2490.36 123.111 2494.45 107.571C2495.98 101.012 2496.49 92.7413 2491.05 87.8102V87.8102ZM2428.59 116.052C2434.88 125.093 2443.21 133.886 2454.63 135.739C2466 138.414 2477.02 132.25 2484.48 124.047C2474.27 142.919 2458.44 158.071 2442.08 171.64C2437.65 166.948 2432.9 162.577 2428.52 157.855C2428.69 143.928 2428.55 129.979 2428.59 116.052V116.052ZM2444.62 172.387C2449.52 176.511 2454.36 180.708 2459.26 184.864C2461.5 186.209 2460.41 189.018 2460.72 191.14C2460.58 207.323 2460.92 223.559 2460.53 239.742C2456.87 231.462 2451.39 223.76 2443.65 218.858C2432.42 211.522 2416.99 211.096 2405.58 218.222C2400.35 221.12 2396.16 225.447 2392.2 229.841C2397.87 218.783 2407.02 210.056 2415.63 201.298C2425.46 191.827 2435.29 182.369 2444.62 172.387ZM426.807 94.7212C413.897 102.193 401.421 110.344 388.779 118.219C378.064 123.808 367.179 129.082 356.389 134.507C356.434 164.766 356.346 195.025 356.465 225.284C351.863 228.857 346.489 231.426 342.305 235.522C343.112 235.999 344.711 236.971 345.518 237.464C349.134 234.341 352.712 231.159 356.688 228.499C370.062 239.615 382.682 251.653 396.025 262.83C396.681 262.488 398.005 261.793 398.677 261.448C421.269 243.935 444.096 226.683 466.703 209.185L463.901 206.719C451.32 216.522 439.081 226.842 426.619 236.792C416.323 227.527 406.364 217.897 396.098 208.587C392.602 206.032 394.559 201.183 394.305 197.567C415.389 182.131 436.483 166.688 457.252 150.833C446.883 132.243 436.849 113.489 426.807 94.7212V94.7212ZM394.232 117.023C404.901 134.551 415.623 152.02 426.172 169.622C415.443 177.168 404.804 184.804 394.196 192.485C394.09 167.336 394.038 142.172 394.232 117.023V117.023ZM776.246 94.6839C767.146 100.676 757.986 106.593 748.677 112.242C735.065 120.759 720.309 127.17 706.052 134.507C706.097 164.751 705.97 195.003 706.089 225.247C701.698 228.52 696.841 231.112 692.566 234.549C693.014 235.341 693.948 236.932 694.397 237.724C699.133 234.542 703.811 231.277 708.667 228.273C720.905 239.973 733.323 251.496 745.651 263.091C768.709 245.965 791.331 228.23 814.165 210.791C817.094 210.194 814.688 205.442 812.82 207.278C800.448 216.872 788.442 226.958 776.248 236.79C766.684 227.302 757.188 217.77 747.669 208.25C744.59 205.545 746.414 201.032 746.25 197.491C766.542 182.428 786.207 166.507 806.544 151.504C797.174 132.228 786.213 113.676 776.246 94.6839V94.6839ZM745.987 117.621C756.447 134.656 766.033 152.259 775.686 169.772C765.719 177.079 756.088 184.834 746.209 192.261C745.748 167.396 746.211 142.501 745.987 117.621ZM1365.67 94.7586C1355.69 100.571 1345.84 106.563 1336.16 112.839C1324.79 119.773 1312.36 124.697 1300.26 130.136C1300.54 161.874 1300.34 193.621 1300.37 225.361C1296.32 229.394 1292.23 233.415 1288.3 237.538C1289.13 237.493 1290.77 237.373 1291.59 237.315C1294.46 234.25 1297.45 231.262 1300.41 228.273C1313.99 239.391 1327.37 250.749 1340.86 261.971C1343.09 264.121 1345.61 260.917 1347.77 260.139C1369.47 248.274 1389.97 234.295 1412.33 223.641C1412.67 194.069 1412.43 164.504 1412.48 134.918C1416.51 130.883 1420.6 126.863 1424.54 122.739C1423.75 122.754 1422.17 122.821 1421.37 122.851C1417.6 125.944 1413.79 128.955 1410.01 132.004C1395.22 119.601 1380.49 107.101 1365.67 94.7586V94.7586ZM1340.38 116.687C1351.05 126.714 1361.91 136.591 1372.58 146.648C1372.48 178.132 1372.51 209.602 1372.51 241.087C1361.57 231.493 1351.18 221.319 1340.38 211.574L1340.38 116.687V116.687Z" fill="white"/>
<path d="M1600.73 165.29C1616.12 141.666 1631.84 118.25 1647.62 94.8646C1654.45 100.67 1662.89 104.265 1671.81 105.175C1680.54 105.19 1687.98 100.005 1694.55 94.8198C1692.89 107.566 1688.65 120.805 1678.86 129.667C1670.33 137.497 1657.39 139.379 1646.64 135.554C1640.31 133.402 1634.45 130.025 1629.21 125.886C1628.28 128.068 1627.52 130.324 1626.96 132.625C1648.81 165.529 1670.27 198.732 1691.73 231.906C1696.66 228.708 1700.98 224.672 1705.33 220.743C1706.18 221.28 1707.86 222.357 1708.72 222.894C1693.28 236.656 1677.35 249.865 1661.53 263.194C1641.19 230.606 1621.3 197.731 1600.73 165.29V165.29ZM2339.79 94.7227C2330.29 100.506 2320.75 106.281 2311.36 112.243C2298.38 121.269 2283.49 126.887 2269.71 134.508C2269.86 164.752 2269.71 195.019 2269.78 225.249C2265.03 228.387 2260.34 231.583 2255.59 234.663C2256.2 235.41 2257.44 236.941 2258.05 237.688C2262.15 234.655 2265.85 231.054 2270.27 228.424C2282.6 239.885 2295.49 250.726 2308 262.008C2309.2 263.921 2310.94 261.963 2312.15 261.186C2334.68 243.823 2357.28 226.564 2379.84 209.26C2377.19 204.627 2374.19 209.118 2371.55 211.015C2360.95 219.639 2350.38 228.252 2339.76 236.829C2328.89 226.922 2318.4 216.649 2307.33 206.979C2307.16 203.869 2307.15 200.752 2307.29 197.64C2328.44 182.324 2349.34 166.649 2370.31 151.095C2360.21 132.252 2350.07 113.446 2339.79 94.7227V94.7227ZM2307.18 117.548C2318.61 134.448 2328.65 152.305 2339.38 169.698C2328.5 177.156 2317.92 185.045 2307.11 192.561C2307.28 167.562 2307.12 142.547 2307.18 117.548V117.548ZM1467.76 97.2106C1476.31 104.996 1483.5 114.171 1491.43 122.584C1500.07 114.305 1508.51 105.788 1516.85 97.1957C1522.92 101.081 1529.24 106.535 1537.03 104.966C1542.51 104.592 1545.36 99.213 1550.03 97.0164C1550.04 108.448 1547.41 120.462 1539.85 129.338C1531.18 139.708 1514.79 142.742 1503.19 135.629C1498.74 133.462 1495.78 129.308 1491.63 126.753C1491.73 158.013 1491.69 189.259 1491.66 220.519C1497.82 225.256 1503.99 229.978 1510.32 234.491C1514.93 231.472 1518.47 225.914 1524.28 225.391C1510.62 238.391 1496.31 250.763 1482.07 263.151C1471.37 253.065 1460.43 243.232 1449.85 233.028C1445.72 236.732 1441.91 240.768 1437.98 244.668C1437.36 243.936 1436.1 242.485 1435.47 241.754C1440.66 235.986 1446.44 230.786 1451.75 225.123C1451.55 198.375 1451.85 171.628 1451.61 144.895C1448.77 138.141 1443.84 132.283 1440.27 125.828C1435.38 128.712 1431.83 134.719 1425.75 134.928C1439.57 122.15 1454.02 110.062 1467.76 97.2106V97.2106ZM2022.25 130.653C2034.96 119.52 2047.41 108.104 2060.2 97.0612C2069.38 107.178 2078.87 117.01 2087.88 127.276C2101.39 117.518 2114.36 107.028 2127.73 97.0612C2137.1 107.103 2146.29 117.309 2155.75 127.276C2169 117.234 2182.09 106.983 2195.44 97.0762C2204.55 107.237 2213.95 117.144 2223.17 127.216C2228.82 123.615 2234.01 119.296 2239.76 115.844C2240.19 119.192 2237.15 120.716 2235.02 122.569C2231.94 125.049 2228.95 127.649 2225.88 130.115C2225.62 157.938 2225.94 185.762 2225.71 213.584C2231.02 219.088 2236.43 224.488 2241.94 229.782C2244.86 226.75 2247.84 223.775 2250.68 220.667C2251.53 221.205 2253.25 222.266 2254.11 222.804C2240.16 236.536 2225.79 249.852 2211.47 263.194C2201.39 251.285 2190.81 239.764 2180.96 227.645C2183.35 225.449 2185.68 223.163 2187.98 220.863C2188.01 196.863 2187.98 172.865 2187.98 148.882C2180.36 140.381 2172.77 131.847 2164.91 123.57C2162.64 125.886 2160.37 128.187 2158.13 130.517C2158.1 160.522 2158.25 190.527 2158.05 220.533C2161.83 224.776 2166.09 228.572 2169.93 232.801C2159.61 241.961 2149.65 251.554 2139.39 260.804C2129.8 250.718 2120.36 240.491 2111.07 230.126C2113.72 226.868 2119.02 224.507 2118.19 219.546C2118.07 196.146 2118.31 172.73 2118.07 149.346C2111.67 140.44 2104.5 131.818 2097.09 123.689C2094.92 125.991 2092.72 128.247 2090.51 130.503C2090.57 159.567 2090.35 188.646 2090.62 217.71C2093.75 223.058 2098.43 227.438 2102.33 232.263C2092.31 242.799 2081.95 253.033 2071.5 263.15C2061.52 251.257 2051.18 239.676 2041.13 227.856C2044.27 225.419 2047.43 223.015 2050.58 220.579C2050.5 196.026 2050.41 171.462 2050.63 146.911C2044.74 139.618 2038.29 132.805 2032.1 125.766C2027.71 129.024 2023.84 133.118 2018.82 135.42C2018.57 133.133 2020.83 132.042 2022.25 130.653V130.653Z" fill="white"/>
<path d="M1933.8 132.577C1946.95 120.533 1960.57 108.952 1973.85 97.043C1983.31 107.802 1992.5 118.8 2001.91 129.603C2006.8 125.778 2011.18 121.235 2016.59 118.083C2016.18 119.801 2015.72 121.579 2014.12 122.55C2010.07 125.913 2006.05 129.29 2001.97 132.562C2002.03 160.431 2001.85 188.284 2002.06 216.153C2007.38 222.16 2012.88 228.047 2017.84 234.381C2021.98 231.857 2025.43 228.404 2029.38 225.596C2030.22 226.043 2031.9 226.926 2032.74 227.36C2019.61 239.673 2005.98 251.477 1992.29 263.146C1983.19 252.21 1973.85 241.449 1964.54 230.677C1960.49 234.353 1957.12 238.806 1952.68 242.004C1952.05 241.421 1950.8 240.225 1950.17 239.628C1954.11 235.892 1957.83 231.917 1961.84 228.211C1962.15 202.898 1961.85 177.555 1961.99 152.24C1961.75 148.714 1962.89 144.545 1960.14 141.736C1955.26 135.684 1950.78 129.318 1945.6 123.535C1941.74 126.66 1938.08 130.052 1933.8 132.577V132.577Z" fill="white"/>
</svg>
