<svg viewBox="0 0 512 512" fill="none" xmlns="http://www.w3.org/2000/svg">
<g clip-path="url(#clip0)">
<path d="M435.2 461.615C432.87 461.615 430.592 460.66 428.962 458.902C349.525 373.688 216.192 332.267 21.3333 332.267H21.3248C15.5648 332.267 10.2656 330.1 6.272 326.166C2.2272 322.181 0 316.873 0 311.198V157.436C0 151.761 2.2272 146.454 6.26347 142.469C10.2571 138.535 15.5648 136.367 21.1968 136.367H21.2053L21.3333 144.901V136.367C227.849 136.367 353.57 100.297 428.962 19.4264C431.198 17.02 434.611 16.107 437.734 17.0968C440.866 18.0696 443.162 20.7491 443.639 23.9918C454.511 97.1139 460.8 155.661 460.8 238.588C460.8 322.479 454.511 381.223 443.639 454.345C443.153 457.588 440.858 460.267 437.734 461.24C436.898 461.496 436.045 461.615 435.2 461.615ZM21.1968 315.2C211.644 315.2 345.361 354.385 429.227 434.88C438.46 370.138 443.733 314.859 443.733 238.588C443.733 163.205 438.451 108.139 429.227 43.4136C349.397 119.377 222.404 153.442 21.3333 153.442H21.2053C20.0789 153.442 19.0293 153.869 18.2443 154.637C17.7067 155.158 17.0667 156.079 17.0667 157.436V311.198C17.0667 312.564 17.7067 313.477 18.2443 314.006C19.0208 314.774 20.0704 315.2 21.1968 315.2Z" fill="#FFB811"/>
<path d="M397.312 426.321C396.954 426.321 396.604 426.304 396.245 426.252C391.569 425.672 388.25 421.414 388.83 416.729C396.945 351.5 401.067 306.035 401.067 238.587C401.067 171.942 396.928 126.562 388.787 61.1963C388.207 56.5201 391.518 52.2619 396.203 51.6731C400.845 51.0843 405.137 54.4038 405.726 59.0886C413.952 125.145 418.133 171.046 418.133 238.587C418.133 306.931 413.969 352.908 405.76 418.845C405.222 423.155 401.553 426.321 397.312 426.321Z" fill="#FFB811"/>
<path d="M324.267 289.788H170.667C165.956 289.788 162.133 285.965 162.133 281.255V178.855C162.133 174.144 165.956 170.321 170.667 170.321H324.267C328.977 170.321 332.8 174.144 332.8 178.855V281.255C332.8 285.965 328.977 289.788 324.267 289.788ZM179.2 272.721H315.733V187.388H179.2V272.721Z" fill="#FFB811"/>
<path d="M247.467 221.521H204.8C200.09 221.521 196.267 217.698 196.267 212.987C196.267 208.277 200.09 204.454 204.8 204.454H247.467C252.177 204.454 256 208.277 256 212.987C256 217.698 252.177 221.521 247.467 221.521Z" fill="#FFB811"/>
<path d="M290.133 221.521H281.6C276.89 221.521 273.067 217.698 273.067 212.987C273.067 208.277 276.89 204.454 281.6 204.454H290.133C294.844 204.454 298.667 208.277 298.667 212.987C298.667 217.698 294.844 221.521 290.133 221.521Z" fill="#FFB811"/>
<path d="M290.133 255.655H247.467C242.756 255.655 238.933 251.832 238.933 247.121C238.933 242.411 242.756 238.588 247.467 238.588H290.133C294.844 238.588 298.667 242.411 298.667 247.121C298.667 251.832 294.844 255.655 290.133 255.655Z" fill="#FFB811"/>
<path d="M213.333 255.655H204.8C200.09 255.655 196.267 251.832 196.267 247.121C196.267 242.411 200.09 238.588 204.8 238.588H213.333C218.044 238.588 221.867 242.411 221.867 247.121C221.867 251.832 218.044 255.655 213.333 255.655Z" fill="#FFB811"/>
<path d="M119.467 247.121C114.756 247.121 110.933 243.298 110.933 238.588V178.855C110.933 174.144 114.756 170.321 119.467 170.321C124.177 170.321 128 174.144 128 178.855V238.588C128 243.298 124.177 247.121 119.467 247.121Z" fill="#FFB811"/>
<path d="M119.467 289.788C114.756 289.788 110.933 285.965 110.933 281.254V272.721C110.933 268.01 114.756 264.188 119.467 264.188C124.177 264.188 128 268.01 128 272.721V281.254C128 285.965 124.177 289.788 119.467 289.788Z" fill="#FFB811"/>
<path d="M85.3334 289.787C80.623 289.787 76.8 285.964 76.8 281.254V221.521C76.8 216.81 80.623 212.987 85.3334 212.987C90.0438 212.987 93.8667 216.81 93.8667 221.521V281.254C93.8667 285.964 90.0438 289.787 85.3334 289.787Z" fill="#FFB811"/>
<path d="M85.3334 195.921C80.623 195.921 76.8 192.098 76.8 187.388V178.855C76.8 174.144 80.623 170.321 85.3334 170.321C90.0438 170.321 93.8667 174.144 93.8667 178.855V187.388C93.8667 192.098 90.0438 195.921 85.3334 195.921Z" fill="#FFB811"/>
<path d="M451.029 307.127C449.05 307.127 447.104 306.436 445.551 305.139C443.52 303.432 442.394 300.881 442.505 298.227C443.332 278.967 443.733 259.46 443.733 238.587C443.733 217.681 443.332 198.157 442.496 178.905C442.377 176.217 443.546 173.623 445.628 171.925C447.719 170.218 450.492 169.595 453.103 170.27L453.854 170.457C487.04 174.878 512 204.07 512 238.587C512 273.284 486.776 302.605 453.325 306.786L452.89 306.922C452.275 307.059 451.652 307.127 451.029 307.127ZM459.981 189.256C460.527 205.188 460.8 221.427 460.8 238.587C460.8 255.697 460.536 271.91 459.989 287.833C480.674 280.99 494.933 261.329 494.933 238.587C494.933 215.641 480.418 195.835 459.981 189.256Z" fill="#FFB811"/>
<path d="M73.967 495.287C67.3366 495.287 60.8428 493.163 55.3302 489.058C47.2918 483.076 42.6838 473.911 42.6838 463.893V324.126C42.6838 321.83 43.6054 319.629 45.2524 318.024C46.8908 316.42 49.0924 315.396 51.4134 315.592C71.4412 316.045 91.7249 317.043 111.71 318.562C116.19 318.903 119.637 322.649 119.595 327.138C119.527 334.963 119.484 342.575 119.484 345.254C119.484 389.423 123.367 414.946 134.315 442.816C137.566 451.093 137.216 460.395 133.351 468.339C129.493 476.284 122.701 482.052 114.244 484.587L83.0721 493.939C80.0598 494.844 76.9964 495.287 73.967 495.287ZM59.7505 332.889V463.893C59.7505 468.459 61.8497 472.64 65.519 475.371C69.1884 478.101 73.7964 478.92 78.1654 477.598L109.338 468.245C113.169 467.093 116.25 464.482 117.999 460.881C119.808 457.16 119.953 452.962 118.426 449.062C106.607 418.974 102.417 391.812 102.417 345.254C102.417 343.496 102.434 339.648 102.468 335.006C88.2774 334.033 73.967 333.316 59.7505 332.889Z" fill="#FFB811"/>
<path d="M128.026 392.188H112.358C107.921 392.188 104.218 388.783 103.851 384.363C102.878 372.63 102.408 359.838 102.408 345.255C102.408 342.558 102.451 334.878 102.519 327.002C102.536 324.638 103.535 322.385 105.276 320.79C107.016 319.194 109.338 318.375 111.701 318.563C132.326 320.133 152.567 322.326 171.878 325.099C176.077 325.696 179.2 329.298 179.2 333.547V341.014C179.2 369.234 156.245 392.188 128.026 392.188ZM120.303 375.121H128.026C146.833 375.121 162.133 359.821 162.133 341.014V340.971C148.309 339.119 134.042 337.558 119.526 336.312C119.501 340.365 119.484 343.668 119.484 345.246C119.484 356.16 119.757 366.008 120.303 375.121Z" fill="#FFB811"/>
</g>
<defs>
<clipPath id="clip0">
<rect width="512" height="512" fill="white"/>
</clipPath>
</defs>
</svg>
