<svg width="2427" height="1492" viewBox="0 0 2427 1492" fill="none" xmlns="http://www.w3.org/2000/svg">
<path fill-rule="evenodd" clip-rule="evenodd" d="M2243.64 808.06L2139.61 985.227L2032.08 808.06H1843.15L2052.36 1153.24V1477.48H2217.32V1149.31L2426.49 808.06H2243.64ZM980.138 1254.69V1477.48H1249.12C1260.01 1477.48 1388.52 1466.46 1463.83 1348.19L1418.81 1477.48H1583.78L1627.98 1359.34H1831.27L1870.66 1477.48H2040.43L1813.32 808.06H1651.98L1513.35 1206.21C1516.41 1183.91 1518.09 1159.75 1518.09 1133.55C1518.09 844.804 1282.63 808.06 1261.13 808.06H980.138V1032.13C935.937 894.607 811.855 795.583 665.803 795.583C558.699 795.583 463.462 848.798 402.828 931.351V808.06H0V962.919H115.924V1477.47H280.886V958.989H384.463C352.531 1012.49 334.114 1075.65 334.114 1143.43C334.114 1335.5 482.644 1491.31 665.803 1491.31C811.855 1491.31 935.937 1392.27 980.138 1254.69ZM1733.24 1037.73L1793.02 1225.47H1673.48L1733.24 1037.73ZM1149.91 956.382C1149.91 956.382 1353.11 910.444 1353.11 1136.17C1353.11 1372.52 1149.91 1323.88 1149.91 1323.88V956.382ZM664.272 1327.21C569.386 1327.21 492.449 1246.43 492.449 1146.73C492.449 1047.03 569.386 966.201 664.272 966.201C759.172 966.201 836.109 1047.02 836.109 1146.73C836.109 1246.44 759.172 1327.21 664.272 1327.21ZM1402.41 376.997C1449.55 418.993 1519.67 428.824 1561.74 442.845C1602.54 456.8 1625.53 476.423 1612.71 526.863C1602.56 567.471 1561.74 582.814 1506.93 573.061C1440.62 560.442 1389.57 498.874 1389.57 498.874L1314.38 650.063C1314.38 650.063 1424.04 745.222 1560.48 745.222C1681.62 745.222 1736.38 666.82 1736.38 666.82L1717.27 736.804H1895.79L1937.84 610.868H2157.16L2199.23 736.804H2384.08L2144.41 19.9785H1963.26L1803.95 475.01C1803.95 475.01 1800.13 426.01 1768.28 372.847C1740.24 326.636 1701.97 306.986 1619.08 281.812C1536.22 257.987 1523.45 234.213 1529.86 202.022C1536.22 171.219 1560.46 155.798 1589.77 155.798C1656.08 157.212 1715.99 206.224 1715.99 206.224L1782.28 68.9782C1782.28 68.9782 1705.76 6.023 1585.96 0.394121C1543.88 -1.00661 1480.12 -1.00661 1425.27 42.4032C1372.99 84.3993 1351.36 152.983 1347.53 211.814C1345.03 272.02 1353.93 335.053 1402.41 376.997ZM2052.57 279.024L2112.48 461.002H1991.42L2052.57 279.024Z" fill="white"/>
<path fill-rule="evenodd" clip-rule="evenodd" d="M181.719 405.31L184.197 410.589L221.718 433.765L244.221 467.889H28.9874C33.2674 486.721 38.611 505.086 45.4201 522.569H278.305L289.187 577.522L299.199 585.149H77.0144C89.3373 604.713 103.542 623.027 119.426 639.829H354.1L369.509 702.136H334.386V702.408H199.89C240.628 724.911 286.165 738.542 334.386 740.604V742.212H967.402C992.304 746.415 1019.55 748.632 1049.4 748.632C1253.55 748.632 1335.42 656.599 1335.42 443.233V23.6615H1160.78V362.302C1160.78 513.361 1156.32 586.355 1049.4 586.355C958.647 586.355 937.999 532.063 937.999 406.711V23.6615H786.279V23.2595H389.819C375.691 21.1692 361.431 20.0943 347.149 20.043C297.98 20.043 251.51 32.2734 209.643 53.5698H368.912L411.634 50.1847L209.63 53.5698L197.737 92.1678L190.785 116.084H124.549C108.099 132.813 93.3575 151.139 80.5422 170.791H168.957L137.285 199.428L134.756 233.357H47.6898C40.5144 251.126 34.6663 269.403 30.1936 288.037H130.774L130.294 294.73L156.26 350.629H20.2458C19.5065 360.512 18.9229 370.473 18.9229 380.538C18.9229 388.955 19.5065 397.1 20.0512 405.323H181.719V405.31ZM267.073 452.325L278.15 432.144L274.025 411.924L275.828 404.104H506.755V404.843H764.062C764.062 432.417 764.386 458.265 765.657 482.571H661.886C663.287 477.279 664.83 472.026 666.036 466.67H396.628L389.547 460.457L329.704 455.321L312.805 466.67H276.476L267.073 452.325V452.325ZM484.187 521.389H506.755V523.322H768.925C771.934 549.158 776.616 573.139 784.152 595.317H610.072C612.666 591.517 615.545 587.898 617.996 583.968H443.76L484.187 521.389ZM399.962 700.956L420.596 638.636H575.598C576.415 637.767 577.077 636.833 577.868 635.964H802.582C807.653 644.706 813.399 653.188 819.884 661.346C831.928 676.626 846.229 689.982 862.295 700.956H399.962V700.956ZM391.868 94.8526L444.889 59.3803H764.049V127.77H581.927C578.075 123.49 574.444 119.028 570.462 114.878H395.422L391.868 94.8526V94.8526ZM470.945 193.086L443.307 169.571H614.456C614.404 169.377 614.183 169.247 614.053 169.04H764.049V246.975H652.651C650.927 242.033 649.318 237.014 647.308 232.151H454.448L473.293 211.101L470.945 193.086V193.086ZM338.459 351.096L372.245 352.691L382.465 312.433L405.37 286.857H506.742V287.726H764.049V364.131H675.686C675.414 359.23 675.103 354.332 674.752 349.436H322.493L338.459 351.096V351.096Z" fill="white"/>
</svg>